<mxfile host="65bd71144e">
    <diagram id="qvpHn9JRAhRNKbZL3RQZ" name="Page-1">
        <mxGraphModel dx="706" dy="2063" grid="1" gridSize="10" guides="1" tooltips="1" connect="1" arrows="1" fold="1" page="1" pageScale="1" pageWidth="827" pageHeight="1169" math="1" shadow="0">
            <root>
                <mxCell id="0"/>
                <mxCell id="1" parent="0"/>
                <mxCell id="550" value="Feature enrichment dataset" style="shape=table;startSize=30;container=1;collapsible=0;childLayout=tableLayout;strokeColor=#000000;strokeWidth=1;fontSize=12;backgroundOutline=0;comic=0;" parent="1" vertex="1">
                    <mxGeometry x="306" y="-830" width="258" height="70" as="geometry"/>
                </mxCell>
                <mxCell id="551" value="" style="shape=tableRow;horizontal=0;startSize=0;swimlaneHead=0;swimlaneBody=0;top=0;left=0;bottom=0;right=0;collapsible=0;dropTarget=0;fillColor=none;points=[[0,0.5],[1,0.5]];portConstraint=eastwest;strokeColor=#000000;strokeWidth=1;fontSize=10;backgroundOutline=0;comic=0;" parent="550" vertex="1">
                    <mxGeometry y="30" width="258" height="40" as="geometry"/>
                </mxCell>
                <mxCell id="552" value="" style="shape=partialRectangle;html=1;whiteSpace=wrap;connectable=0;overflow=hidden;fillColor=none;top=0;left=0;bottom=0;right=0;pointerEvents=1;strokeColor=#000000;strokeWidth=1;fontSize=10;backgroundOutline=0;comic=0;" parent="551" vertex="1">
                    <mxGeometry width="258" height="40" as="geometry">
                        <mxRectangle width="258" height="40" as="alternateBounds"/>
                    </mxGeometry>
                </mxCell>
                <mxCell id="115" style="edgeStyle=none;html=1;entryX=0.5;entryY=0;entryDx=0;entryDy=0;fontSize=12;exitX=0.971;exitY=0.998;exitDx=0;exitDy=0;exitPerimeter=0;backgroundOutline=0;comic=0;" parent="1" source="5" target="98" edge="1">
                    <mxGeometry relative="1" as="geometry">
                        <mxPoint x="559" y="-1031" as="sourcePoint"/>
                    </mxGeometry>
                </mxCell>
                <mxCell id="176" value="Aggregate &lt;br style=&quot;font-size: 11px;&quot;&gt;per operator" style="edgeLabel;html=1;align=center;verticalAlign=middle;resizable=0;points=[];fontSize=11;" parent="115" vertex="1" connectable="0">
                    <mxGeometry x="-0.5907" y="-4" relative="1" as="geometry">
                        <mxPoint x="4" y="31" as="offset"/>
                    </mxGeometry>
                </mxCell>
                <mxCell id="4" value="Profiling metrics (per kernel)" style="shape=table;startSize=30;container=1;collapsible=0;childLayout=tableLayout;fillColor=#f5f5f5;fontColor=#333333;strokeColor=#666666;fontStyle=1;backgroundOutline=0;comic=0;rounded=1;" parent="1" vertex="1">
                    <mxGeometry x="220" y="-1092" width="350" height="60" as="geometry"/>
                </mxCell>
                <mxCell id="5" value="" style="shape=tableRow;horizontal=0;startSize=0;swimlaneHead=0;swimlaneBody=0;top=0;left=0;bottom=0;right=0;collapsible=0;dropTarget=0;fillColor=none;points=[[0,0.5],[1,0.5]];portConstraint=eastwest;backgroundOutline=0;comic=0;" parent="4" vertex="1">
                    <mxGeometry y="30" width="350" height="30" as="geometry"/>
                </mxCell>
                <mxCell id="31" value="dataset" style="shape=partialRectangle;html=1;whiteSpace=wrap;connectable=0;overflow=hidden;fillColor=none;top=0;left=0;bottom=0;right=0;pointerEvents=1;fontSize=10;backgroundOutline=0;comic=0;" parent="5" vertex="1">
                    <mxGeometry width="50" height="30" as="geometry">
                        <mxRectangle width="50" height="30" as="alternateBounds"/>
                    </mxGeometry>
                </mxCell>
                <mxCell id="33" value="GPU" style="shape=partialRectangle;html=1;whiteSpace=wrap;connectable=0;overflow=hidden;fillColor=none;top=0;left=0;bottom=0;right=0;pointerEvents=1;fontSize=10;backgroundOutline=0;comic=0;" parent="5" vertex="1">
                    <mxGeometry x="50" width="50" height="30" as="geometry">
                        <mxRectangle width="50" height="30" as="alternateBounds"/>
                    </mxGeometry>
                </mxCell>
                <mxCell id="29" value="operator" style="shape=partialRectangle;html=1;whiteSpace=wrap;connectable=0;overflow=hidden;fillColor=none;top=0;left=0;bottom=0;right=0;pointerEvents=1;fontSize=10;backgroundOutline=0;comic=0;" parent="5" vertex="1">
                    <mxGeometry x="100" width="50" height="30" as="geometry">
                        <mxRectangle width="50" height="30" as="alternateBounds"/>
                    </mxGeometry>
                </mxCell>
                <mxCell id="138" value="type" style="shape=partialRectangle;html=1;whiteSpace=wrap;connectable=0;overflow=hidden;fillColor=none;top=0;left=0;bottom=0;right=0;pointerEvents=1;fontSize=10;backgroundOutline=0;comic=0;" parent="5" vertex="1">
                    <mxGeometry x="150" width="50" height="30" as="geometry">
                        <mxRectangle width="50" height="30" as="alternateBounds"/>
                    </mxGeometry>
                </mxCell>
                <mxCell id="6" value="kernel" style="shape=partialRectangle;html=1;whiteSpace=wrap;connectable=0;overflow=hidden;fillColor=none;top=0;left=0;bottom=0;right=0;pointerEvents=1;fontSize=10;backgroundOutline=0;comic=0;" parent="5" vertex="1">
                    <mxGeometry x="200" width="50" height="30" as="geometry">
                        <mxRectangle width="50" height="30" as="alternateBounds"/>
                    </mxGeometry>
                </mxCell>
                <mxCell id="7" value="metric" style="shape=partialRectangle;html=1;whiteSpace=wrap;connectable=0;overflow=hidden;fillColor=none;top=0;left=0;bottom=0;right=0;pointerEvents=1;fontSize=10;backgroundOutline=0;comic=0;" parent="5" vertex="1">
                    <mxGeometry x="250" width="50" height="30" as="geometry">
                        <mxRectangle width="50" height="30" as="alternateBounds"/>
                    </mxGeometry>
                </mxCell>
                <mxCell id="8" value="..." style="shape=partialRectangle;html=1;whiteSpace=wrap;connectable=0;overflow=hidden;fillColor=none;top=0;left=0;bottom=0;right=0;pointerEvents=1;fontSize=10;backgroundOutline=0;comic=0;" parent="5" vertex="1">
                    <mxGeometry x="300" width="50" height="30" as="geometry">
                        <mxRectangle width="50" height="30" as="alternateBounds"/>
                    </mxGeometry>
                </mxCell>
                <mxCell id="35" value="Data &amp; Model Characteristics" style="shape=table;startSize=30;container=1;collapsible=0;childLayout=tableLayout;fontStyle=2;backgroundOutline=0;comic=0;" parent="1" vertex="1">
                    <mxGeometry x="70" y="-1001" width="183" height="60" as="geometry"/>
                </mxCell>
                <mxCell id="36" value="" style="shape=tableRow;horizontal=0;startSize=0;swimlaneHead=0;swimlaneBody=0;top=0;left=0;bottom=0;right=0;collapsible=0;dropTarget=0;fillColor=none;points=[[0,0.5],[1,0.5]];portConstraint=eastwest;backgroundOutline=0;comic=0;" parent="35" vertex="1">
                    <mxGeometry y="30" width="183" height="30" as="geometry"/>
                </mxCell>
                <mxCell id="37" value="dataset" style="shape=partialRectangle;html=1;whiteSpace=wrap;connectable=0;overflow=hidden;fillColor=none;top=0;left=0;bottom=0;right=0;pointerEvents=1;fontSize=10;backgroundOutline=0;comic=0;" parent="36" vertex="1">
                    <mxGeometry width="47" height="30" as="geometry">
                        <mxRectangle width="47" height="30" as="alternateBounds"/>
                    </mxGeometry>
                </mxCell>
                <mxCell id="38" value="\(j_t\)" style="shape=partialRectangle;html=1;whiteSpace=wrap;connectable=0;overflow=hidden;fillColor=none;top=0;left=0;bottom=0;right=0;pointerEvents=1;align=center;verticalAlign=middle;labelPosition=center;verticalLabelPosition=middle;fontSize=10;backgroundOutline=0;comic=0;" parent="36" vertex="1">
                    <mxGeometry x="47" width="36" height="30" as="geometry">
                        <mxRectangle width="36" height="30" as="alternateBounds"/>
                    </mxGeometry>
                </mxCell>
                <mxCell id="39" value="\(nnz\)" style="shape=partialRectangle;html=1;whiteSpace=wrap;connectable=0;overflow=hidden;fillColor=none;top=0;left=0;bottom=0;right=0;pointerEvents=1;fontSize=10;backgroundOutline=0;comic=0;" parent="36" vertex="1">
                    <mxGeometry x="83" width="36" height="30" as="geometry">
                        <mxRectangle width="36" height="30" as="alternateBounds"/>
                    </mxGeometry>
                </mxCell>
                <mxCell id="40" value="\(e_t\)" style="shape=partialRectangle;html=1;whiteSpace=wrap;connectable=0;overflow=hidden;fillColor=none;top=0;left=0;bottom=0;right=0;pointerEvents=1;fontSize=10;backgroundOutline=0;comic=0;" parent="36" vertex="1">
                    <mxGeometry x="119" width="37" height="30" as="geometry">
                        <mxRectangle width="37" height="30" as="alternateBounds"/>
                    </mxGeometry>
                </mxCell>
                <mxCell id="41" value="..." style="shape=partialRectangle;html=1;whiteSpace=wrap;connectable=0;overflow=hidden;fillColor=none;top=0;left=0;bottom=0;right=0;pointerEvents=1;fontSize=10;backgroundOutline=0;comic=0;" parent="36" vertex="1">
                    <mxGeometry x="156" width="27" height="30" as="geometry">
                        <mxRectangle width="27" height="30" as="alternateBounds"/>
                    </mxGeometry>
                </mxCell>
                <mxCell id="52" value="Hardware Characteristics" style="shape=table;startSize=30;container=1;collapsible=0;childLayout=tableLayout;fontStyle=2;backgroundOutline=0;comic=0;" parent="1" vertex="1">
                    <mxGeometry x="300" y="-1001" width="216" height="60" as="geometry"/>
                </mxCell>
                <mxCell id="53" value="" style="shape=tableRow;horizontal=0;startSize=0;swimlaneHead=0;swimlaneBody=0;top=0;left=0;bottom=0;right=0;collapsible=0;dropTarget=0;fillColor=none;points=[[0,0.5],[1,0.5]];portConstraint=eastwest;backgroundOutline=0;comic=0;" parent="52" vertex="1">
                    <mxGeometry y="30" width="216" height="30" as="geometry"/>
                </mxCell>
                <mxCell id="54" value="GPU" style="shape=partialRectangle;html=1;whiteSpace=wrap;connectable=0;overflow=hidden;fillColor=none;top=0;left=0;bottom=0;right=0;pointerEvents=1;fontSize=10;backgroundOutline=0;comic=0;" parent="53" vertex="1">
                    <mxGeometry width="40" height="30" as="geometry">
                        <mxRectangle width="40" height="30" as="alternateBounds"/>
                    </mxGeometry>
                </mxCell>
                <mxCell id="55" value="architecture" style="shape=partialRectangle;html=1;whiteSpace=wrap;connectable=0;overflow=hidden;fillColor=none;top=0;left=0;bottom=0;right=0;pointerEvents=1;fontSize=10;backgroundOutline=0;comic=0;" parent="53" vertex="1">
                    <mxGeometry x="40" width="70" height="30" as="geometry">
                        <mxRectangle width="70" height="30" as="alternateBounds"/>
                    </mxGeometry>
                </mxCell>
                <mxCell id="57" value="memory" style="shape=partialRectangle;html=1;whiteSpace=wrap;connectable=0;overflow=hidden;fillColor=none;top=0;left=0;bottom=0;right=0;pointerEvents=1;fontSize=10;backgroundOutline=0;comic=0;" parent="53" vertex="1">
                    <mxGeometry x="110" width="46" height="30" as="geometry">
                        <mxRectangle width="46" height="30" as="alternateBounds"/>
                    </mxGeometry>
                </mxCell>
                <mxCell id="58" value="compute" style="shape=partialRectangle;html=1;whiteSpace=wrap;connectable=0;overflow=hidden;fillColor=none;top=0;left=0;bottom=0;right=0;pointerEvents=1;fontSize=10;backgroundOutline=0;comic=0;" parent="53" vertex="1">
                    <mxGeometry x="156" width="44" height="30" as="geometry">
                        <mxRectangle width="44" height="30" as="alternateBounds"/>
                    </mxGeometry>
                </mxCell>
                <mxCell id="59" value="..." style="shape=partialRectangle;html=1;whiteSpace=wrap;connectable=0;overflow=hidden;fillColor=none;top=0;left=0;bottom=0;right=0;pointerEvents=1;fontSize=10;backgroundOutline=0;comic=0;" parent="53" vertex="1">
                    <mxGeometry x="200" width="16" height="30" as="geometry">
                        <mxRectangle width="16" height="30" as="alternateBounds"/>
                    </mxGeometry>
                </mxCell>
                <mxCell id="505" style="edgeStyle=none;html=1;entryX=0.5;entryY=0;entryDx=0;entryDy=0;fontSize=12;backgroundOutline=0;comic=0;exitX=0.496;exitY=1.001;exitDx=0;exitDy=0;exitPerimeter=0;" parent="1" source="69" target="550" edge="1">
                    <mxGeometry relative="1" as="geometry">
                        <mxPoint x="433.96000000000004" y="-830" as="targetPoint"/>
                    </mxGeometry>
                </mxCell>
                <mxCell id="69" value="$$\bowtie$$" style="text;html=1;align=center;verticalAlign=middle;resizable=0;points=[];autosize=1;strokeColor=none;fillColor=none;fontSize=20;backgroundOutline=0;comic=0;" parent="1" vertex="1">
                    <mxGeometry x="370" y="-908" width="130" height="40" as="geometry"/>
                </mxCell>
                <mxCell id="504" style="edgeStyle=none;html=1;entryX=0.404;entryY=0.001;entryDx=0;entryDy=0;entryPerimeter=0;backgroundOutline=0;comic=0;" parent="1" source="70" edge="1">
                    <mxGeometry relative="1" as="geometry">
                        <mxPoint x="277.03999999999996" y="-922.93" as="targetPoint"/>
                    </mxGeometry>
                </mxCell>
                <mxCell id="70" value="$$\bowtie$$" style="text;html=1;align=center;verticalAlign=middle;resizable=0;points=[];autosize=1;strokeColor=none;fillColor=none;fontSize=20;backgroundOutline=0;comic=0;" parent="1" vertex="1">
                    <mxGeometry x="212" y="-991" width="130" height="40" as="geometry"/>
                </mxCell>
                <mxCell id="152" value="" style="edgeStyle=none;html=1;fontSize=26;exitX=0.823;exitY=1.003;exitDx=0;exitDy=0;exitPerimeter=0;backgroundOutline=0;comic=0;" parent="1" source="540" target="151" edge="1">
                    <mxGeometry relative="1" as="geometry">
                        <mxPoint x="434" y="-750" as="sourcePoint"/>
                    </mxGeometry>
                </mxCell>
                <mxCell id="98" value="Cost per operator&#10;(broken down by dataset &amp; GPU)" style="shape=table;startSize=42;container=1;collapsible=0;childLayout=tableLayout;fontSize=12;fillColor=#f5f5f5;fontColor=#333333;strokeColor=#666666;fontStyle=1;backgroundOutline=0;comic=0;rounded=1;" parent="1" vertex="1">
                    <mxGeometry x="459" y="-923.72" width="200" height="70" as="geometry"/>
                </mxCell>
                <mxCell id="99" value="" style="shape=tableRow;horizontal=0;startSize=0;swimlaneHead=0;swimlaneBody=0;top=0;left=0;bottom=0;right=0;collapsible=0;dropTarget=0;fillColor=none;points=[[0,0.5],[1,0.5]];portConstraint=eastwest;backgroundOutline=0;comic=0;" parent="98" vertex="1">
                    <mxGeometry y="42" width="200" height="28" as="geometry"/>
                </mxCell>
                <mxCell id="100" value="dataset" style="shape=partialRectangle;html=1;whiteSpace=wrap;connectable=0;overflow=hidden;fillColor=none;top=0;left=0;bottom=0;right=0;pointerEvents=1;fontSize=10;backgroundOutline=0;comic=0;" parent="99" vertex="1">
                    <mxGeometry width="50" height="28" as="geometry">
                        <mxRectangle width="50" height="28" as="alternateBounds"/>
                    </mxGeometry>
                </mxCell>
                <mxCell id="101" value="GPU" style="shape=partialRectangle;html=1;whiteSpace=wrap;connectable=0;overflow=hidden;fillColor=none;top=0;left=0;bottom=0;right=0;pointerEvents=1;fontSize=10;backgroundOutline=0;comic=0;" parent="99" vertex="1">
                    <mxGeometry x="50" width="50" height="28" as="geometry">
                        <mxRectangle width="50" height="28" as="alternateBounds"/>
                    </mxGeometry>
                </mxCell>
                <mxCell id="102" value="operator" style="shape=partialRectangle;html=1;whiteSpace=wrap;connectable=0;overflow=hidden;fillColor=none;top=0;left=0;bottom=0;right=0;pointerEvents=1;fontSize=10;backgroundOutline=0;comic=0;" parent="99" vertex="1">
                    <mxGeometry x="100" width="50" height="28" as="geometry">
                        <mxRectangle width="50" height="28" as="alternateBounds"/>
                    </mxGeometry>
                </mxCell>
                <mxCell id="103" value="Cost" style="shape=partialRectangle;html=1;whiteSpace=wrap;connectable=0;overflow=hidden;fillColor=none;top=0;left=0;bottom=0;right=0;pointerEvents=1;fontSize=10;backgroundOutline=0;comic=0;" parent="99" vertex="1">
                    <mxGeometry x="150" width="50" height="28" as="geometry">
                        <mxRectangle width="50" height="28" as="alternateBounds"/>
                    </mxGeometry>
                </mxCell>
                <mxCell id="156" value="&lt;span style=&quot;text-align: left; font-size: 13px;&quot;&gt;Fit statistical model to predict cost on unseen hardware &amp;amp; data&lt;/span&gt;" style="whiteSpace=wrap;html=1;fontSize=13;strokeColor=none;" parent="1" vertex="1">
                    <mxGeometry x="223" y="-754" width="205.96" height="40" as="geometry"/>
                </mxCell>
                <mxCell id="488" value="Independent variables&#10;Hardware, Data &amp; Model characteristics" style="shape=table;startSize=42;container=1;collapsible=0;childLayout=tableLayout;fontStyle=2;backgroundOutline=0;comic=0;" parent="1" vertex="1">
                    <mxGeometry x="149" y="-923" width="260" height="70" as="geometry"/>
                </mxCell>
                <mxCell id="489" value="" style="shape=tableRow;horizontal=0;startSize=0;swimlaneHead=0;swimlaneBody=0;top=0;left=0;bottom=0;right=0;collapsible=0;dropTarget=0;fillColor=none;points=[[0,0.5],[1,0.5]];portConstraint=eastwest;backgroundOutline=0;comic=0;" parent="488" vertex="1">
                    <mxGeometry y="42" width="260" height="28" as="geometry"/>
                </mxCell>
                <mxCell id="490" value="dataset" style="shape=partialRectangle;html=1;whiteSpace=wrap;connectable=0;overflow=hidden;fillColor=none;top=0;left=0;bottom=0;right=0;pointerEvents=1;fontSize=10;backgroundOutline=0;comic=0;" parent="489" vertex="1">
                    <mxGeometry width="52" height="28" as="geometry">
                        <mxRectangle width="52" height="28" as="alternateBounds"/>
                    </mxGeometry>
                </mxCell>
                <mxCell id="491" value="GPU" style="shape=partialRectangle;html=1;whiteSpace=wrap;connectable=0;overflow=hidden;fillColor=none;top=0;left=0;bottom=0;right=0;pointerEvents=1;fontSize=10;backgroundOutline=0;comic=0;" parent="489" vertex="1">
                    <mxGeometry x="52" width="52" height="28" as="geometry">
                        <mxRectangle width="52" height="28" as="alternateBounds"/>
                    </mxGeometry>
                </mxCell>
                <mxCell id="492" value="operator" style="shape=partialRectangle;html=1;whiteSpace=wrap;connectable=0;overflow=hidden;fillColor=none;top=0;left=0;bottom=0;right=0;pointerEvents=1;fontSize=10;backgroundOutline=0;comic=0;" parent="489" vertex="1">
                    <mxGeometry x="104" width="52" height="28" as="geometry">
                        <mxRectangle width="52" height="28" as="alternateBounds"/>
                    </mxGeometry>
                </mxCell>
                <mxCell id="493" value="char" style="shape=partialRectangle;html=1;whiteSpace=wrap;connectable=0;overflow=hidden;fillColor=none;top=0;left=0;bottom=0;right=0;pointerEvents=1;fontSize=10;backgroundOutline=0;comic=0;" parent="489" vertex="1">
                    <mxGeometry x="156" width="52" height="28" as="geometry">
                        <mxRectangle width="52" height="28" as="alternateBounds"/>
                    </mxGeometry>
                </mxCell>
                <mxCell id="494" value="..." style="shape=partialRectangle;html=1;whiteSpace=wrap;connectable=0;overflow=hidden;fillColor=none;top=0;left=0;bottom=0;right=0;pointerEvents=1;backgroundOutline=0;comic=0;" parent="489" vertex="1">
                    <mxGeometry x="208" width="52" height="28" as="geometry">
                        <mxRectangle width="52" height="28" as="alternateBounds"/>
                    </mxGeometry>
                </mxCell>
                <mxCell id="519" style="edgeStyle=none;html=1;entryX=0.999;entryY=0.817;entryDx=0;entryDy=0;fontSize=12;entryPerimeter=0;" parent="1" source="507" edge="1">
                    <mxGeometry relative="1" as="geometry"/>
                </mxCell>
                <mxCell id="521" style="edgeStyle=none;html=1;entryX=1;entryY=0.5;entryDx=0;entryDy=0;fontSize=12;backgroundOutline=0;comic=0;" parent="1" source="507" target="5" edge="1">
                    <mxGeometry relative="1" as="geometry"/>
                </mxCell>
                <mxCell id="507" value="" style="shape=image;verticalLabelPosition=bottom;labelBackgroundColor=default;verticalAlign=top;aspect=fixed;imageAspect=0;image=data:image/png,iVBORw0KGgoAAAANSUhEUgAAAIAAAACACAYAAADDPmHLAAAABGdBTUEAALGPC/xhBQAACklpQ0NQc1JHQiBJRUM2MTk2Ni0yLjEAAEiJnVN3WJP3Fj7f92UPVkLY8LGXbIEAIiOsCMgQWaIQkgBhhBASQMWFiApWFBURnEhVxILVCkidiOKgKLhnQYqIWotVXDjuH9yntX167+3t+9f7vOec5/zOec8PgBESJpHmomoAOVKFPDrYH49PSMTJvYACFUjgBCAQ5svCZwXFAADwA3l4fnSwP/wBr28AAgBw1S4kEsfh/4O6UCZXACCRAOAiEucLAZBSAMguVMgUAMgYALBTs2QKAJQAAGx5fEIiAKoNAOz0ST4FANipk9wXANiiHKkIAI0BAJkoRyQCQLsAYFWBUiwCwMIAoKxAIi4EwK4BgFm2MkcCgL0FAHaOWJAPQGAAgJlCLMwAIDgCAEMeE80DIEwDoDDSv+CpX3CFuEgBAMDLlc2XS9IzFLiV0Bp38vDg4iHiwmyxQmEXKRBmCeQinJebIxNI5wNMzgwAABr50cH+OD+Q5+bk4eZm52zv9MWi/mvwbyI+IfHf/ryMAgQAEE7P79pf5eXWA3DHAbB1v2upWwDaVgBo3/ldM9sJoFoK0Hr5i3k4/EAenqFQyDwdHAoLC+0lYqG9MOOLPv8z4W/gi372/EAe/tt68ABxmkCZrcCjg/1xYW52rlKO58sEQjFu9+cj/seFf/2OKdHiNLFcLBWK8ViJuFAiTcd5uVKRRCHJleIS6X8y8R+W/QmTdw0ArIZPwE62B7XLbMB+7gECiw5Y0nYAQH7zLYwaC5EAEGc0Mnn3AACTv/mPQCsBAM2XpOMAALzoGFyolBdMxggAAESggSqwQQcMwRSswA6cwR28wBcCYQZEQAwkwDwQQgbkgBwKoRiWQRlUwDrYBLWwAxqgEZrhELTBMTgN5+ASXIHrcBcGYBiewhi8hgkEQcgIE2EhOogRYo7YIs4IF5mOBCJhSDSSgKQg6YgUUSLFyHKkAqlCapFdSCPyLXIUOY1cQPqQ28ggMor8irxHMZSBslED1AJ1QLmoHxqKxqBz0XQ0D12AlqJr0Rq0Hj2AtqKn0UvodXQAfYqOY4DRMQ5mjNlhXIyHRWCJWBomxxZj5Vg1Vo81Yx1YN3YVG8CeYe8IJAKLgBPsCF6EEMJsgpCQR1hMWEOoJewjtBK6CFcJg4Qxwicik6hPtCV6EvnEeGI6sZBYRqwm7iEeIZ4lXicOE1+TSCQOyZLkTgohJZAySQtJa0jbSC2kU6Q+0hBpnEwm65Btyd7kCLKArCCXkbeQD5BPkvvJw+S3FDrFiOJMCaIkUqSUEko1ZT/lBKWfMkKZoKpRzame1AiqiDqfWkltoHZQL1OHqRM0dZolzZsWQ8ukLaPV0JppZ2n3aC/pdLoJ3YMeRZfQl9Jr6Afp5+mD9HcMDYYNg8dIYigZaxl7GacYtxkvmUymBdOXmchUMNcyG5lnmA+Yb1VYKvYqfBWRyhKVOpVWlX6V56pUVXNVP9V5qgtUq1UPq15WfaZGVbNQ46kJ1Bar1akdVbupNq7OUndSj1DPUV+jvl/9gvpjDbKGhUaghkijVGO3xhmNIRbGMmXxWELWclYD6yxrmE1iW7L57Ex2Bfsbdi97TFNDc6pmrGaRZp3mcc0BDsax4PA52ZxKziHODc57LQMtPy2x1mqtZq1+rTfaetq+2mLtcu0W7eva73VwnUCdLJ31Om0693UJuja6UbqFutt1z+o+02PreekJ9cr1Dund0Uf1bfSj9Rfq79bv0R83MDQINpAZbDE4Y/DMkGPoa5hpuNHwhOGoEctoupHEaKPRSaMnuCbuh2fjNXgXPmasbxxirDTeZdxrPGFiaTLbpMSkxeS+Kc2Ua5pmutG003TMzMgs3KzYrMnsjjnVnGueYb7ZvNv8jYWlRZzFSos2i8eW2pZ8ywWWTZb3rJhWPlZ5VvVW16xJ1lzrLOtt1ldsUBtXmwybOpvLtqitm63Edptt3xTiFI8p0in1U27aMez87ArsmuwG7Tn2YfYl9m32zx3MHBId1jt0O3xydHXMdmxwvOuk4TTDqcSpw+lXZxtnoXOd8zUXpkuQyxKXdpcXU22niqdun3rLleUa7rrStdP1o5u7m9yt2W3U3cw9xX2r+00umxvJXcM970H08PdY4nHM452nm6fC85DnL152Xlle+70eT7OcJp7WMG3I28Rb4L3Le2A6Pj1l+s7pAz7GPgKfep+Hvqa+It89viN+1n6Zfgf8nvs7+sv9j/i/4XnyFvFOBWABwQHlAb2BGoGzA2sDHwSZBKUHNQWNBbsGLww+FUIMCQ1ZH3KTb8AX8hv5YzPcZyya0RXKCJ0VWhv6MMwmTB7WEY6GzwjfEH5vpvlM6cy2CIjgR2yIuB9pGZkX+X0UKSoyqi7qUbRTdHF09yzWrORZ+2e9jvGPqYy5O9tqtnJ2Z6xqbFJsY+ybuIC4qriBeIf4RfGXEnQTJAntieTE2MQ9ieNzAudsmjOc5JpUlnRjruXcorkX5unOy553PFk1WZB8OIWYEpeyP+WDIEJQLxhP5aduTR0T8oSbhU9FvqKNolGxt7hKPJLmnVaV9jjdO31D+miGT0Z1xjMJT1IreZEZkrkj801WRNberM/ZcdktOZSclJyjUg1plrQr1zC3KLdPZisrkw3keeZtyhuTh8r35CP5c/PbFWyFTNGjtFKuUA4WTC+oK3hbGFt4uEi9SFrUM99m/ur5IwuCFny9kLBQuLCz2Lh4WfHgIr9FuxYji1MXdy4xXVK6ZHhp8NJ9y2jLspb9UOJYUlXyannc8o5Sg9KlpUMrglc0lamUycturvRauWMVYZVkVe9ql9VbVn8qF5VfrHCsqK74sEa45uJXTl/VfPV5bdra3kq3yu3rSOuk626s91m/r0q9akHV0IbwDa0b8Y3lG19tSt50oXpq9Y7NtM3KzQM1YTXtW8y2rNvyoTaj9nqdf13LVv2tq7e+2Sba1r/dd3vzDoMdFTve75TsvLUreFdrvUV99W7S7oLdjxpiG7q/5n7duEd3T8Wej3ulewf2Re/ranRvbNyvv7+yCW1SNo0eSDpw5ZuAb9qb7Zp3tXBaKg7CQeXBJ9+mfHvjUOihzsPcw83fmX+39QjrSHkr0jq/dawto22gPaG97+iMo50dXh1Hvrf/fu8x42N1xzWPV56gnSg98fnkgpPjp2Snnp1OPz3Umdx590z8mWtdUV29Z0PPnj8XdO5Mt1/3yfPe549d8Lxw9CL3Ytslt0utPa49R35w/eFIr1tv62X3y+1XPK509E3rO9Hv03/6asDVc9f41y5dn3m978bsG7duJt0cuCW69fh29u0XdwruTNxdeo94r/y+2v3qB/oP6n+0/rFlwG3g+GDAYM/DWQ/vDgmHnv6U/9OH4dJHzEfVI0YjjY+dHx8bDRq98mTOk+GnsqcTz8p+Vv9563Or59/94vtLz1j82PAL+YvPv655qfNy76uprzrHI8cfvM55PfGm/K3O233vuO+638e9H5ko/ED+UPPR+mPHp9BP9z7nfP78L/eE8/stRzjPAAAAIGNIUk0AAHomAACAhAAA+gAAAIDoAAB1MAAA6mAAADqYAAAXcJy6UTwAAAAJcEhZcwAACxMAAAsTAQCanBgAADldSURBVHic1V13mBRF2v9V9cwuaclJRRAQiSKCBBFRVMyi4pnFnON5Zj1O0MNw5nBGPPTjjKDomRBBT1ARRQEBUQQVFVAQWFg2TXdXfX9UvVXVPT2zu7As3Ps8u9Pd01NdVW8OVc2klLjn467Q0AvAVQAOBdAM2xA488AYBwMDGANjDJuLMwiCEOkCBnCAcYABYCz2Y0YfEgDUf3OPBGMycrtk0txL5+Ze/Wlbcn8rzTfRY7pXuK3G7kv6XfQ4u80oSJn9XdI1BUzNpf6UzlU60r/fDOBDnmL/rCwLPk05LRwP4LWcvalFsJ3SZ4xBhAJhIMC5+o4xII73aBsO8p0jlnUlhvwEJNvPOHLcX8Xvk1lPqi3k50JyPuTTZzbyDeLp5iIApzGw06TAxVxf3B11hHwLzBACY0CQkQiFBOe6z/mwn4X86PXIOYsh3zm3RJTE+e5xnGC2HfJzQVWcz8AjjMXyTKKXYqgoC5Cp8J8gAhhbo95sLbC4DADCQKguEwHYW2O/TUK+M/GMrkSRmgvJEiJ2XSA38gW2Hvlim4l9egKLId78ngGex1FZFqJ8cwZgAKmAI3L2qNaBGb1PrC4EEAQCzDO35KDdBA4HDFEwc7Vq5Ge3V1diPxm2hdiP/14hP0DZ5gy4BzCPGQJomOMptQ5xxHIO+L5AGEjwFKsB8rOv5zLkkpAvZNQ2iCBHJoh9lhv5jFUX+bUr9l3Op6s5kZ9iWchnsBKgEkBBjXq3pcCs1gKUyA99CSEkUtyY9zGQCdeTJieGbJYgCaQS+yzShIBw74pMfLbYt56DJgypG8tBCFG1ktDrOhH72cgHLAHUIcRYXGrx72oFujOKJfsD99Nx/xBx/yzyLYLsxJj/UkLQZDmcT2KduT2g9plFPtNtSyb1jVFCyCf21SNrhnw4yK+O2OeeMvjKY8inXtU5ATB3EIwhDCUCPwRPmRvcoUR+awecRBQJ+lw659LhcwlFFVJf0YgTUjrNqDaMZGDSEKRgug9MXZdECEQYElotbFvOp6uJv2eAxzkqynyUb/bBPQbmIYJ8oI4JwIh9R/wHFVr8p+k7gjjyydCLamJGeti5KqS0hCQ1L2sOlVJq5EsITTcyJgWy9bVuj5ANCXDbL2bal/RQALk5fxv7+QCs2K/Y7GvOz0a+awPUDbA49SrxrzgGjv8vc0T/sjnfDEh/byaCRDPU5EghjISWQhINaEIQhHdIGdf51HUJcGkkASMVwJlqiGsikeq6kAljyANba/C5kMvgiyNfSrkdJACL8ngYEHchB5KtPs53TRLnGvZQx0KG5poUgJACEEQUClFaGyiBL2OqgzgfUoWmGcC4oh7OVaOSA0yo65IJEk2JsM0NPp5s8CUhH6hTCRAN/TDOIEKpwr8eWf8yclfUkk7w85lr4ElS9RqJ0iBTIVepGiklZKgmIBRSfSc14oWM2AT2oRKMS4N8pvMUSOnrAoAHowKScL+9/Px8yAerQwKwdKx1PdP+fyiQKgAkA3gi18jYUZKBJ614l8psIw6XWsdLKRCGmhiEBA8bYr8OF6BVs3bwgwyklGDg4NwDqRLOPX0u8PbXY1GaWQPmKQLgnppYngI4l8pb5MoYlDljGbGR1YGfnw/5dWsDxBQiY0r8q0BKTKixmBZ2XT0X+ST2ta+m9LzmcmmRLYSAEFASQAB7NPoTOqSPRu/2/dCqVatqdX/Gooex0f8dXAA8pXrHQepBQDIGToKJ+qPHuT39fHcK48gH6owAWOQDgAr/ZsJI8oco1g7bhXiARionSxtyLscLuhZKCAGEEhChxG4ND8Tg9pejqGBnrFy5Er7vV3sElZlKRbBSOXceFHKFUB4BExKSMRt70mPd3n4+tZqEfIk6MgJpSOaIM4hAIAiEDf9GSDZm8JGJHjs3Lh2sZR8KdY24PQwk2jTsjaGdrsTurYegtLQUGzduRBAENRpD6Ku2hFTqnkGHgDmAEPC0PWLMB+MRRNupaz8/H/KBupIALFv/h4FQepcwH4me6SOprhtfW0JZ3eTbSyiLHor7Q9e6DyXqe61xUM+/YEjXs+D7PoqLiw3X50ZEMoShVPkK3X+DfE6SAOBMSQEbMXTwn0MVmC/1Z237+fmQz+rOCIxbRRJ+RsfYuOV+6fj/ZN2b0KyDfM3kanDasg8FlMiXAkyk0L/duRjR7xakvAJIKVFRUWGfLiU456gJiFBChKpPymWVAGfGI2ACkNwIJB0Z1I4BUxKKpiI+N9vSz6eTJOQDdUQA7mAYI9EsTMmXm7RxrXupDT5GOl4qna5ogVw3IBRQhl4o0a3lMThqrxvRumkn83ySNDQhRUVF+O2337Bh0xrsvPPO1RqDFIoIAM35DMojCJmNDzCVZeSedgrU4M1zyTjUk4ItMvhq6OfnQz5QBwRgB6jPGUPgC4RC6vx/1LI38Xby4wGj64U25kjkK+Sr412K+uPQHteh6y5DEvshpUS9evXQoEEDzPhkCqYtuQvD+Cj07NanWuMQWq1IBiDUCA8VQTNuBTf31Kg5oPMIJDGcOWFQvqI+2ZZ+fj7k140RGHfxuITvC4hQIJ223WewLpOk0Cwj444CNhoJ0iKkSWEHDOtyFQZ1PSVnFzjnKCoqwqrfVuDZqTfh+w3vABJo1Xynag+jpHQdhJDgAhDE9UQIpE0i7ioDo3AwN5fAOCCltogYA6RGPqsC+bUo9t1rdSABog+VkiH0hdWP3Omog3zlxzvunfHjlU/PZD3s3/FiHNX3umr1Y+I7Y/DxsvHwxWbto0swVn07oFnD3VC6YYPmfqmIwHgv0o5V0lhUhJNsQkMIQiNeI9/8UMZynA4iucdRWeogn1ffz8+HfIY6sQHUYInKRQj4gQDXoVXjNkkK4sBwuyEGQUaYgJBArzYn4Ji+N6Npw7ZVPv2TBVMwZc7tWF/+A2C8RseNrCaMPvV9/Lh6Hr5a/g4W/fou1pZ9F6tXYKCwBNkBUucLmNQSQyoXmGsCkERAMmoA5vPzQZzv3BMJNtUA+dtYBciYXav0f6YyhAhC8AKmo6fWwAMUgkQoTDRPhNanb994Xxyx103o2KZflU///ud5eOm/f8OPGz6G61qaxA5qlq1r2KARenXeH7067w/gTiz6YSZmfvMsFv/2Jny/hHxWpSY8TcQCkB7APQkmmE4eQbmKJgDmSAEk+Pmljp/PlTQRTg0kg/Yw9ElNkA9sMwkQseiMNOPQ/r9Qlr2aDO3KwYp80vNk4DUt7IiD9rgaA/YYWeWTM34Fxv/nGsz95QXyK8jgNt4GM+5ZDSggBr06DUWvTkNRXLIGb815EF/++m+UZX4HTzEtwWClmVDIg8fAJUOoC0g4Yyp6yKK6HAB4iqOiNED5Zl8ZyxwmqQWSHIxqG/V068/qIh/YxirA9XqgdbqfEVDBHY2F0EnYCOJ25denWSMM7Xwphve5olrPe/WDBzB94cMoD4rNpEbSzE620ejkrYSmRa1xxiF34FQxFpNnjsOsHx5FEG423C9TStczzsAkU6ljDnDJILSBEC994ymGihKr88EYmFAhaFdgSB1plMwOpSbIB9smBGBFuXRVAJcIAokwI7QtIHX2TJrYvQgFRKiian12OQXH9L0Zjeo3y/u0MAzw6of34b+Lx6PM/8NIG8lFNMpIhRx6suMct7Xg8TROPnAMjhhwBf5vxtX4+veXwQWDpwnBU0lFMA/g3BIC9YcIlXOukF/qG+QjhJIahGym1AADTAQQsARRXeQDtU4Ajj9PRpEKg4FJBj8jEQQCXlpZyVKoSTE6XwC7NRuKI3pfjw6t96r2U4s3r0VpxiIfjKqM6IK06pbUAKIeSm1B4wYtcPkx/4fPl5yMl+dcjVL/V0ih1AIXElxo5HvaJnC4mqc4yksDlGvkS8lM9JEQy7mWBBSG1hEnQxBOX/IiX09WLQhB/TDppmmda0IYg8ivCCFEaNOzgSoIEUKiWcHuOLnfk7j4kOdrhHzPS+HC4+7Fwxd/j4GdTlOEFe2ZtZYo4hg53zYwoPtRuO/spejZ4kSVSPKB0GfqL1Cl8EFGIPSBwFfILt8UYPPGDHZp3BdM1FPz40uEASACQIY6ha5tDPJqhNDuR3U533Uxa2OwkTo8aV071xAKfYFMZaAte4V8EUh4sj6Gdb4W1x/zIfbudOQW96FJUUtc9qd/4tZTP0Knlvvq7ugOmTMX4dsO+S5ccdxzOLrH3ZoApEa8WgsZZIAgkJCCoXxTCFlehBP7Poi/Hv8ZejYZpYlDJaGIGEhFQjOVkNnKzISekSz23WOml4dvglo1WmNwka8Qr6N48JTC0sEO3xcoWV8Jw4EQ6LPLSTim300oatCyyufMXzYNC3/6EAfsOQrt2/So8v4Pv3wBb335D6wvXa7XG9qaPpqUcw56HEO6n1nzQW8BLPnpUzz2/kmolMVgTJogEU8z+BUhBrQ/G6cdcBfqFzYGoLyZS59uBelVqFgCk0ptpABPVyS51Ulc2xSSWXWXj/MBaLt4KwggG/la5CulBIBDCAbGJMpLlHjzChg6Nd8Ph+91LTrt1LfKZ6zZ8BMmf/x3fLn8dRPEGd7nUowccjMK0/Wr/P2kD+/AtEUPIJDlyiagIJyUOOegx7F/j7NqOuwthnUbV+K2Fw9EqVwFxlVsv2OzoThh4Fjs3m6f7L5PvxfvfHcTwFRAiacAz2MG+TwFeCntVXAoo1obidIwGnIiH9gKAkjkfBPB44DkOoIHgEls3uCjSXp3HNn3L+jTqeq1qOWVJXhj9n2YseBxCBnaQWi9XVSvNY4deCOG9Tm7yrbWbvgV//f+DVj02+vO6CXOOfhxDO1Z9e9rE/ygAn95qhekV4mTBt2DoXvlzmEAwDn/2Ami3lowT3N+yv55DgEYacCgCAFwIkXJyAfbYgKQ1ggBNOe7SRsGKTlEqAyXQt4E/Xe+AAf3ubBarU+b+xTemXsfSirWxcrFJdzwvZQCu7Xqh2MH3ow9Ox6ct80wDPH5wvcwZc7tWFMxH1JKXHDoeAzpcUb1h11LEAQZhCJEYUHVEmzO19PwyPQj4emiD+4BXlr/ETFo5HsejKqz7mBu5ANbRABRa19F8LQbF1LCRol+EQL7tDsDB/e4Cg0Km1bZ8hffvoX/zLkHq9YvdqJddkBE3dF+KEuzX6cTcNygv6KNUwdA4Ps+SktLwRhDWVkZXv/vo5j72xM4vN9VOHHo36o37O0IV9w7ABvYV2Ce1IhnDgFoVeDYBIw58QEp3SiRgi23AWyQRyFfTb6pvwtVtk+GDB2bDsPw7tdgp2bdqmx18fJP8eace7B09cfKtwUNxPF3yfABtPOrBiL1+q4wBMAYDu5xOY4bdBMK03bFOxFAWVkZMpkMAODL+bOxW+ed0W/PA6oe9naG4pI/cMnjbeFpAlDin4Gn1XkqpW0Cz5knx96JhGQj4dkaBYIS3CYt+iFhVtjs3Ggv7N/pCnTdaViVLa7d8Cte+XAc5v4w2bRPpVTGavcYGNdGkKcWYsCN8EmVn1fLsQSmL34Ic5a9iGP63YJhvc+NPE8tRg1RVlaGxg1bok2zztUf/naEpkUtsXfrszB/7bOmBiHU8yO5OvbI4eKaKWjxCqAqU3JEvqopAWKhFR26lZr7lW+qwrg3HPI16qXzC5M163/Bu589hY+XPIdMUA4TDeNqkQVZtdxjYCnlMnme2kHEDZ8Cuj7Q5A90X0KVUOrQoj9GDvobuu6yv5EA5eXlKC0txerVq9GzZ0+0a9euWkjYEeDUvxeB1ytTEiANpNJKBRipkCZ30EoDQOM9rgb0YTUCQVlhBlBQxSzAoGMh4YfleVsrKduAhyafhRlfP4FKvwxuhW8kkcEBcKEIgTv+rk6v8pSSDl5KXyNrmKtybcaAn9Z+jntfPwpTZt+xVZm/HQVG9r8DoQ4EyVCpXEXwMDUTUjjzGcJGCGNbIdFhFQSQI1rm5O5VpE+Y8GQoMnlbbFivMS4a8RgGdTnNcK7qdOxZlLzhUhk3noNgbRdwT1o7gdlgCAV+0qkCHLXP9Rjc7eSs4g+3BuF/BU487ArU83fJQr4g5IfQElH/wf654J7nIYAcnG+QbwL+lhDiZU0JwLmH9m274dITHsKYMz9E93YHRZ4hIU00C5w5eksaolCVNG5cP3uoQ7qdiTvPWIQTh4xFm2ads5DNGPuflAq3jHrDGN0iVPMuAhsillo6SNrZgsLGgHXbNdDShgTIhUYZ+VY6NCaksLXv1YTO7Xrj5jMn4dKjJ6BN0z0ivaT4QjR8r1PHlGiI9UEC2L3NfrhhxAc4e9gTaF7UTv/MNiKEQP369cE5R0nphhr1d0eALh32Rvv6B1mxT8khF/nknjufQDbygUQCSEKi5S4Zu0bCm0mWLG+gJj0f7LvnCNxz0WwcP2g06qWbwF3aTYWgZk2AtLYHFY9ICbRo1BmjBj+Ja458D53aDIz2Xv8mlUqhefPmWP7zIkyZfy0Wr347b792VBh93mSI0NMLXp0/kgLSEgPhxI3dEPLdQhL7bdZ5buTDMeCg8/9JMHP+K3hs0lVVEsJx+1+Nu8+di8FdRtm1/AbZuhRci7tQW/pcFuKInqPxtxHzMGj30xPb9TwPTZs2hYTE+Leuwb+/PAMb8S06tuuZtz87KhQ1bIrBu14CGcoo5xPySQWQata/U4yqj3U8wHEDZYLvlo18s0iDcvqhCsLIgCEIGK4dPgvNGkZdq+lfPYPn3rsBRQW74IQhN+Hggfnj3wCwfOVXmPTJrfhh/Uxj/ZPBx3QhRd/2J+H4/rehaYNdqmxv8owH8P7C+1EWrlEXGEPnNgPRtkk3tGi8C5o22AVtm3dG110HoqAaSaYdAU4f1wSov0nlBNLREDF5R4y8I2ZNKknrFGACQbnEftKR1bcETJqd9xKhqH4LgAEllb9iwvRL8cniF3HyQaPRdbfsDBhB51364saT3sSniybh7fl34o+yZdo9lOjYYh8cu88YdGt3QBVTBMxbOh0vzxyNVSXzVF+5LcL88Y/P8OMfn0VCo40KW6FL6wOxz+7HYUjvP1XZ/vaEM4Y+iomfnWnWJJLoNyF6wIh8Sg4R5xNoCbCHEwhyBUaCzo/pX3JFQl/F/q8Z/nGWBPhk0WQ8+fbFJmEEKG4+sNf5OP3QsahX2KDKwT7/wQ1YvGoahnQ7G0fuc1WV9xeXrMG/3r0G81dO0s9DJEFiEiZ6YtQQGSTUGn8pGNo364/D9r4Kg3tVXY28vWD004fhx9JpSKWjUoCnbNzEo+CZFxsvcoaCc+j8bG/dQD6Pyi6ntuYoY8BHS8bjq5/ewJH9rsZRgy/JO9DTD7obwN157yF4ftqt+PDbx5AJS+zzaRIcNWKKRPWsMDBIwYzu/GXTF3j6g1H479cTcNmIZ9CkUetqPb+u4PmpY7Ep+MmcO565QR7tXgfuhNnNDyIEkJ/zs5Hv3sdiv0kALXo4g/Lz9eSXBWsxec5NmP3dCzh20M3o333L962eueBlvP7Z7Vi7+XtDkRHO1zkFCjUrIrCxBqZlJBmdLAQEGJat+xDXT9gLFw5/Fv26HbbF/astmPH5C5j8yRisz3wPz1P6HoBdaUVjdgy+OPKJWGISoKbIp6tVB1QUAlRMkpDPOcwO4b9tXognp5+Cj785En/afwx2bd01X3NOTyRmzH0O7897HCuLFzgP1Hv40bNNZJFKqPSOGoypblGESapoGgsZ3FhKJtyEh98didOKH8Fhg87F9oBvf5yLidNuwndrpsfC3w6hw/ljia6edQnh7He5ZcinTRMdSKIF0rvMTfRI8JQK83pU1OBJfPP727h98r6YOP1GBEH+sLIajMSPqxfg1/ULbEVSdCAwq2no2Zxp/ch0iRVzSq3c77Ul7WwN9+LsKzF/yawq+1WbkPHL8eBLF+LmZwfg29+mm75w5qgxbj+Nte/iIp4Whjp2CKDmyKd27YMkYj/Q91gEMFcE60nnKQmeVitieAqAF2Dmsn/i2me7Y/6y6XknhzOOC455APed/w167zoiEgdXcQoZ4QjbD2Ylgp4xOuZchYnNPfqvZYMuGNDqz1i1YkNkx5FtCe/MfBZn3bEzZi55WudFbH9MfsT59Giwzn3ElJHAqj7gsXNUX+zTfvvM3J83tK4NQcakyu55DJy4X1usXkpqH1aCexJl4e/4ZtV71Zqoti064YbTXsF1I99Gx1YDzICzumH0vVqbRzaAmiw6gJFaANAg1QoHdroe5w15EUP7nAIm0/jqq6+q1a+thVXrlqEiLDadtkQbRT4nzqdr7v3xRuMqoObIJ+3InP/qIJefwGh5FlX46AoWrj8J+abgUX/XpFHVJeMu7L3HIRh37iycsf/DaFx/p+h4JSAlGXpW50cimfpPCgkPBRi46wW49vD/4qDe5wNQ1UUtWrTA2rVrsWLFihr1bUvgxOF/Buc8y3NhTo0glYWbzaIiXo9ty6FpA26JJarL+eYbEi0kC8ye+TEw3K9P4+rAHQgRRgrGSIvD5vLiKvf4O2LQRXj00uU4uMeV4PDMWkXpIJ9i6GrpFoPQS7hEKNGrzfG4/ojPcOoBd6KwoAF834fneUin0/A8D02aNMHKlSvz9qE2oEmjligqUIRMasz1ZIjzI8h3PR8S0jH9LwG3XLAmnG/vYOafukuE+WP91kWREYlgjKwUSQXh1LhlU1RFpgTXPd0Pz745Nu/zOPNw9mH34PZT56HXziPUWgWhahZN4iRkNrUqgPZF++GyYVNxyeET0a51F2QyGTDGkE6nkUql4HkeGjRogLZt22L2wv/gyZdG5+1DbUCH1ntbzndqJFkS8l1JAWQjn/AVtQHiRqB7LZvzXa+BzhmHXbOWAPYJDgExW71jKnlM9Y80u4jEoVnRTlhT8h3eW3wH/vxwf3z9/czkh2po16orrhk5CZcc/CpaN+hpy9gCvU4vYGia7oxT+j6Na0dMRfdd1UZTUkqk02nD9fXr10fz5s2xuWI9Js64DrN/uw/TltyZ99m1Ad077GsR6RilHA5BxKQqhX1JCrh4T3AD47yfhHzXUnBapO+Z3vs/SQfE/TLa4cL1Hmi3LWN5s8gaABdC4aNJI7XH75qyr3Hn5OG4/+Wz8Nu6n5J/oGGfrkdi3KgvcFTP21CPN4cIgQLWBMP3uAW3nzwf+/WIJqk450ilUigsLETLli2RTqfx0gd/xwPvHI6l66eCCH/OwuoZqlsKLZvsaudKEwEZfHDqJOlPSqsu6CfmIIaeFFAV8uNiPWoAui0GQZg8Ah2PpE0hInWEsTYkhJEm+eJLUk8+Rbvm/vQS5k94HYfudSXOGH577h8COG7ItRje73xMmzseB+19Zt4QL0mAVz94EFPnPYBNlausTeOpnn+25FUM3HPbRQiLGrTQNhZ5L9AHjsPCHYRzmLmLGOgx5EuZMxKYW+xH2jDWhoQUodr9KwFKK4r1A5W5aAoW9G7eKpul9t034Ux9Ty5wKZwGLVCB9xb+A3OWv4SRA27FsL65V/00rN8Ux+9/be4HaPh88bt48aNbsHrTQgDK6BLCrlBiADaU/VRlO1sDrVvsao5Z/IBEPxAhEtcBiGcA3XBNVi4gl9jP7eAp8R2Gqiw7iWvbNe+N+qmWKAvWmg2NpLbAmVR7AXEqUNNWqxAypz1hBq6JhXYcJ1G4qfIXPPfx+Zi1ZAJOGDwGPTvun6ehZFj283y88MFofPPbVKt3oQhV7dwBWpaAP0qX17j9mkDDwqbgLAUGvcG1g1BiAglE37fgqow45zvHMSMw2dqPvv1KOO1L/WCJwJc5awK7dRiEu8+Zh0Edz4ZNtkhdTCLMPrxU1mw3Qag6++gGRkx4N6VCuyuKZ+P+dw7D429fgOKSNTlaisLm0mLc/+K5uOXfA/DNqqlmrMrYsi6q58Gsyysu/wWbStdWq/0tgcKCBkjzQgAON+dSjwliPue5TDQC42I//i5dROWL/l74oVXICVDUqAkuPu4RjDn1c3RuNsyWNgew5c2B2jCBFnbIHDYlgWv1Mgf5XMf3KcL41S8v4OYXe+PVWXcik6lMbGvjpvWY+PZtuOSR3fHZ8omK+Mja5tARTICnKUgFs0QbPERx6e+5O7qVUJAuRMpLR7lZfyaFd+kwjuz4OWAigbk4X8aQr6135xpjinMD4bz7Nw90aNsdfx31Js4/8N9omu6oikkC+xchiBB5K41d14dzxfXmL60lQUrlGwJsxtTF43DX5OR088T3b8EbX96OCn+jbdu0rzk/7XB+WoetdTpWyhwGcC0A0x0hmygL4XFtjexzmeOEJ9+SxPmEfBa5m3EG3w/Vyx/yrDKIw+Dex+O+CxZjeLebkEaR3UIloJczqL+q1m5QTt8kcojzU7SKlhsiYFxiXUWyvq4Um7KymmZnDh4X+4600SlZ2tljW0BlpgK+H82Mbi3nUxtZ6WA6T0I+GXyAa2FK5+UPVWArAU4eNhrjTlmAvXc+zUgDKxVk1Z4AVPbO4zySxqU0r9LZTOcbGJrk2I6mMNXABlq4I/ZJ5zuFltw5ZpyhYf2maNF4260xzPgVCKVVXbkQmnSei/OpDZ59WzLnR4iEOd9po43zZA8AANZvzK8fmzVui8tGjMf1R3+EDo0Ha1WgDEOGZL3C9H+z477z8gbPIB7mrV6EsFQ6WUy58XO3bpBrEU/FKxHka6nStkk3eDydd4xbA2UVxQhlQu6jhgZf0vWYCqgG8p1vGQfCUCAMQjAvwd/Q8Mk3L+Laxwdi8fLPEr8n6Np+AP52+gyM2vdJFKXaQ4bAxrI/km92LGHmOL+coomcRbiYcYX8ME++gkqnaU8ek21z067OhkxUZdSmcfWql7YU1m6IJp3ifCbjQZ4qxL4LEQJIRn70PPJaE6a2fxNCmOROErRo2harN32NcZOH4f6XzkV5ZUnifQQH9TsTD1+yFPt0OB2eaJh4jyp8jLgjOnPIjBgHpCYIIFXA4GcCZCqTXxZl9tdxSsc8QrSRLNnIZwzo3f6ovOPZWtiwaU1eb6imYt/9ThNALs6n79yogysNJIIgVMwYxUX0Oc6bFOf+9CIuf3QPvPbR/XlGpOCK45/ByP1uyvGtfWDcLVYSXL+QigNemsOvEKgo99U+OjnALR0jxJNaICmi6uws8lNefQzqdkKVY9ka+KP4Z7eT0T7HhHN1OR/aiMwqCImK/ez0r6oB0BMvlf5nRv/LZBqg7IT+abm/AZM/uxnXPb0PZi9+PekXBtLpZN1qVySrTtF2rNQvY+RwoLI8RHmZ3W8/F7iFFG4hqd2axspJigr2br3tF4+sWLsIQHTMEojzIiIr75zjXMgHslRAnHxssia68FsAXGX/glDo9+TQLuAJ4IRSQVzGgNUbF+Gxqadg3PPHYMXqxVVMg9s1iZLy9Rb5zsRQVFFKpRIqy0JUlGasbZCvXUquaETH8w0UmWTShqpHDsqfeKoNWLFmXrY3ROv/I4yg/swaQSA7mBZzH40XkMT5udQOifzQFxBhGOWaPMqKXsDsbuTAOLB0zfu49eV98PRbV6KsIr99AADpVD0csMdl4EjrxBKLRA+lABjjqCwLUV6irWetvXJuCsGyuZyoRUqtCPXUCKFWKvdrcx5aN981ub1agrKKzVhTomMXMorwyLJwB+FmgYiIIjuOfCArEmjvlIjeKWOVGQxAGKjwr6MVcgLdYxYqcpi3XapFjBKf/vgUrpnQHf/59MH8bTGOC469B3ec+SX2aHmoeacQVfYwxlCxOUBpSUaPhtkt7HLjX43TLF2zk0Ttu8hHZUOcf9gT+QddC/DOrGcghOMCuhweIwaEVhLQMnGDdNczcOYg5hTHOd/+wkUyY0AoQgS+UO4fE+rNH3m43zWcKG7PuFSWddr61pViLabMuwE3TeiP2QvfzPuK111a7Y5bRk3B5Ye/itYNemnRz1C+OURZia8HzWzeQRNJYv/i0oFUCr2BPLYtyzVHzoCXz6KsJahX0ACcpc1qpSQJINxPqXdnJeIlgnDG5YITCMqFfHfGND8xZfwFoZsXz418wIp7WphBmTUKrzIuzY5XqRSwtmIRnv7oJMyYP77KSdqn2+G467w5OH7vf6AgbIWyEl9NhN5v3yBOb7meDDKqR6Wz304IW0YWAifv/TS6th9QZb9qA44+4AI8cvm36N3uGKsCTJ/shlGuBHSJI4vznWMnFKwnwDm212RMvKsCjtAPIWXU/89pNTDjUanlWhRidVKrlLih+L2K4jGU+L9Wf7IGX4aHL1qGg3teBSbTEDqcTLkFtd9+nkAQjVBGJ9ZF/llD/oXh/c6rdp9qA3Zu1Qljzv8Prh/5Fto17Wu5XW/FG02eOXYAETHxtwMxL0DkQL7zK+Z8KyUCPwSVRqEK48+2wZR1TfF2z/rXdhNkZmL5KY/VOMnCGMd5R92LcafPQ4/WR5vsogxh9ttPAlesCsemCPUGGFwW4NJDpmBoj7Nr1J/ahIF7HoUHLvsSp+33EBql21ikUw7FNQg1kbhcbzAbtwFycn4MlPWvyr9DR/xXBcp+UFZVtq9tkzdeiiOVsildnmKJVcGbSv/A19/nX5+3a5uuuOn013DNMe9g50Z7WeTLZL1NG10L6RqUEjIEOjbfD7eduAD9uxxbvQFvYzjugCvx2OU/4cCul6FxYTu1Q4ujFsxnzGCMqAOo84R0MCE/TgBa/3Pl/oWhgOeUk1TlBUQMLCfpEl8nyLgt6KD4e1ZbELh7ymH429NHYPXan/I+t2/X4bjnork4ZfD9SLEG+OWPRYnEnfbSUeQLiWYNdsPpQx7B2NNnYZdW2zbeX1MoSNfDRSMeRfuiwVFjMIb8JAngnsS2iIkjX8ZW5kgADH6g3wrCgWhiOhmSXC8dUtFEwE3QhelCv1A3n7QyqFH9ZqhfrxGW/v5fXPXIXjh6wNU48+gxeftw7NArMaDHMXj/i38hkylHYUF0V5LfN6zQ8QNgtzaD0L/LsThu6F+QTm27LN/WwsLvZuOrXyYjVaDrK506S3p9uQTMJhHGk3MIIlIUGke+ioaxCHdLKbPEfxXMnwW0wbTqELkR9oXK+p0j6r16CRCKAFwUoLIyAGMBXv9iHOYsnYTjBt+I4YNG5XzuTi074swjbk+UAF1bHAEU74r99j4aPbsMQPPmzeHxbe/mbQ3c9eKfgEJhjDzDaEJrOgfRZib1ScwITEZ+FnCJMAxV/p9yMfRH0YYEkFCWl9FF+la7TkC9VBGMRdIG+cCvDG3KlgO/lSzFk9POxS3jD8KiZZ/k/W1SQLjLTkPQZ7ej0bppRwRBgMrKyiq3tdue8Mq7D6OCr4IJDMHR+YBFfkznOx/WBsiFfCstpLHelUslTLrVlCXnqQYKA2kCLTZRw02ABcZ3VRQihdqsSeYhKhDy9SnZE8t+n4XbXz4AD00+Dxs356glyAG+7yMMt11tX23CS5/coA4SEGxOcyHfQXesIiiaE5AR6a+igcJXssZu264hD9v27Xw0Du12Ewp5YyX6JdcLNJl6u4hkahfsEGqFLrlk8UG4j9OLIeFIAU55eg+Yvfw5/PnJrnhh2m25O/Y/CmMfOwPwKrQUheFUd3uDJINPJuAoRzZQgLJhbvhXCPX6N+bBpEqZXiHB9T0ez954rKhhU4w68lY8eOH36N9hlA27CphXy8SDGlKvE8gF1mi0uQVTvasjjBm5EW8tGIurHuuOmfNfrs7c7vDw+x8rMW/V8+qEEmrIdq1N7iWm813KiBSFRjg/8kitDhhTb/kMpa3+1Tlze6ze5pULGjVoiitGjsctIz9Gx2YHQIQ6i+cDYahW6Zp9B0MK2uQQLTRQquSh0LJbwKnfp7OuYimenHEaxjx3KJb8OCe5uRwG544GNz16RLR+ETbMDve6s8rKGIEx5ANZ2UBrDGbNB1O6nNbFmQogEsP6CY/NOB4r1i7IO4guu/bD6NOn4qz9JqB5we4q8qYLQentmmGgpEuu9YaAnQDa/s3lftpfIEXbqHrAsnUz8Og7J1cxxTsufPT5m1gfLDScb7aE4RbppoQNlijiq4RzFoUmx/K5/pGEXymilj/cFxYrwvh+3Qz8Y+ogPPP+JSgpW593QEP7nIS7z1mAQ7reqNYGhDp2HyjPoKI0VK+bzwekiiLbpCjOT6Xt6iCmQ82pdG7XbkeXAo9OOddIvazNINwaC8DBESJ+YNw2yFEQQmLdko5ax+e8nFDrfVfkuDH+L1ZOwOhJPTHl47uqHNjJw0Zj3Glfo89OpyAMAEiGyrIA5ZtzbwNDROeqAeUWqg2oqDScFm/QKp569epV2Z8dESa8Ng6+94dBsCvx3P2CyB4ym0Y4EiDJK8hSAe76f9dfpsWbKjZiX/JkVQGtzgHAJTwOZGQx3vvuNtw8cW98uui1vANs0qgVLjt2PK47ajp2bjAIFZsDXdaVO3avu2nFHVeRSy8yMUo9WLWQzOU7MvcLIfD652PNfNs1CZbhuFNoIx2kA8h2CxyXMJYLsIs/mc7cSe3yBRkq/0ZEvLiFHoR8zgGvgOtXvgHrKr/DhE9G4e5Jx2D5ynl5B9u9474Ye9Z0jNr/MRSmGuOX1d8m3ufgH6aMS0+OEZPOy6Zg3ka24yI6F9z4wHFgaT9i8HEH+a70jRiH+thwvkMIFA9wcgFuAIg0g1UcARljzG3Luoq0qwfnAEtx9S4/CXBIhIyDcYYfij/EXW8OwcD25+CMQ+5GvYLkmn8AOHroBdivz7FYueb75BsieJSRS6aok0GHlKVxWKqbwdxRYMXKpVi64c1I+lwRtJUCRv05NoGr841NEI8EItEG0HcbM4BBBBJBoJdCk97Vt0WWUnkAT3G7NIvOC5iyxrVO/vzXZ3HDxB54c/ZDeQffrHFr9Np9v+QvtalCkUUW+UqawbnjcrdO2Z5w4Z29cOGdPbB0xZdV3jtm/Ijo/gcawbRIhXOHIMj6T7D8k8LAQEJRKIuxCOOK+0UozE4crsg13MYBzjk8vakh50AqxdWfB13uZat+KsQ6/OfrmzH6+QGYveiNGk2glAIlpX9E6v9NWbiwBCGkMzKmb8oVWq4DCEMf543rjjVli7GmbAmuH78PHnjxfGwqTfaW3vno3ygOv4ssTaPiGfJ6IruEwd4DIIvY42FgxwtIAvvrIHAMLma/MWqAKeSrQk+9WjfFzUuOlRXOs956nSrgWL1xER6d+ieM+/cx+Pn3JdWaSI+n0aZJl0iAw9TwaTvWFHOa8qjcFcF1AStWfYtz7uyEdZXfOlXRwKzvnsFlD3XBK9Oz34Uw4f3LIq+Ld63+yM6gMdEv9cS4wZ+socssIxCxO5UPIIREmBERUU9qAFLrVs7AtcxRPrldmq2KPbUKMAQhkS5kECKEH/hIpYHv1r+Hv77QB0+/fWWOeISFlFeA286chYN7XOFwPrJq+Mwr1HRlz/YSAJ8ueBPXPtUPJf6vEfeN/irEekz67EZc9ciemPuN2nLumdfGAPU2ZYl6nrI6n3YGdwNCgOMBuGHgGOfTYaIEMJtAMJX5C0Npdv8wyQf6ZBxcyyC1+TKpAn2csku1SRqkCzmkFAh8H6kCwCtUBMJSAjO/fxyXP94R785+Mu+kNm/WEhePfBB3njkPu7c6yNbBOaXboUDiSxXrEv75ytW457URCFlZBImRpeaau1dvXoR/vHE47nz+eMxYcn+U+81Sd+f3VDFlVLEGBvuyiHiHZPRajAC0cw+m3D+mt2yhbdFoEYi5nYNW5JJRyDl3jEKtEhyfPF2gOD/wfaQLgVQhsy9BTqkXIpf6K/HCZ5fhhqcHYu6S/JswdmrXG7ef+z4uO+wVtG20Z/R1qoFzTOd1lOL/4ddFuOrB/pjxzYOWg529BUzOglSiox4Xrn4dKCyx7/6JId++Rc26hIBj/MWzfwmcT+eGAKTOv8b9xtAX5jo9xHgIsWARZxr5tOsn6TpNBKk0QxCGyPg+vALAK+SRN2DTBDBNDKvLvsRDU4/Cva+cgjUbfsk74UN6n4B7L5yPE/rdg3peCwjfvmNQBIDwiRi2vQ54YvI1uG58H/yyca7NT2iEM89BvIP8VIEi/lRB1E4y93qWeNzVVUYCcEQsf7ObWB7kA+QFmOVQjgMJAEIbgAkbNjN6slEmXBsgtozMFHUyiVRKZRMzFb6yBwpI7Ns1Aak0wNNSvQFLT4iXAhasmoTrn+uGZ9+9ocrJP37oNXjo/B8wuNOFkCGzG1A5qeZtBW/PGo/z7u6IaYvvB3ho3DZXzEfe7uVyfjyTmc5GPiPudwJAACzKyDSLdywH8iXcmsCYCck5Q+ALBL4ATymlYqWAQj5zkG/sQ8asZQ7lJaRSDH4mRGVFBl7a3iOYWq0tdRBJBOo7wQEuJAS5OByQogIfLL0XX/z4Mo7tPxqH9s+9OKN+YREuGfEkjlx9BZ6d9hd8t/Z9OzOi9iNBb338JN7/6gn8umE+TUfETYtH7Uh8E+e6EhaISmBzmdpxud2Jw5AKNjZaFZwfiwTCEeXamudqIYWk9C/dZeKL+m7G9UOMU2abkRIeV8gvL9fr87kiHOFGEen3KXXMBSBDTXQckJ6qE2ChxObwF0z85ELMWvwcTht2F7p3GJwTMR126oVbz5qGWQsm4ZVZf8Xa0qVYs+HnnPfXBNZu+BVvzHwEn3//KtbpnULd2LyJ2btEQJa/NrXcwA1BFrLcKU2w9iPZv3gDVSAfiO8V7DxQSr37N4MV6UZKOD0ybcWiDlBRQL8yQGV5Rm23ohMxUkobltXBG6JwCO19MJVQMit+tTRAqO5bUfIx7pgyBP12PQ1nHXovmhW1zXo+wf57nYj99zoRj792JZasnIFKvxyFsdfD5lw2rkEIgVVrluOrpdPx6aKXsXzNbIQyEynGcPcPiiM/YrjRp8PFNOdmFh0pQBzt/gaw8xcx5R1CqAr5gEsARnYo4y0MBIIMbbDEbPkXEQmLGoDx5zMOg3zlATDL6SS2pPUwaDCSqdi9x8mHVxMYhpZIhJCqkJQDX616AQuffR3De1yLUw4ekxeJl4x8GEIIBGHVbyOLw+0TjsW8H982qjBigcfEvbvkjcWR7wRt7MJaoz0tLiQimzxHzDPH2idhHHkvYDWRDxjaIcRbMzLUW7ZyvfzHoFv/4xQriDVIA/EzoUK+5nxlmVpZofBtt2Ax+9/rN2NFVg7TqmFtJJJxpAwliYCV4p1vxuKqpzrjw/kT8yKSc46CdHJNQD4psHDF+3Dfc2C43Omna91Hzp39BV03zo3mmXOy7t0AUIK1z6COo4W7qBHyAUd4sBhCwwCQsJzPDNmx6L0xIcAZ4PsO8vW2LO6uG8x4CzFu0Nuzufvw2ZdK2VgBTXIqHZ3k4sof8K+PzsTfJg7Bdz/n35IuDlWpgJZN1U4gET3PLVJdK97010U+EYAjJSJIdechdh5J88YMPmt8o8bIB2CKegDm1OFLtfs303qf9uFTz0nmfN1ENuczB/nUT1J2ZARBSYeIAcUBek+eW+NnJtZTr5YjN8qNNv5U/An+/tq+ePSNs1G8uXY2cSbJRpY4HNFu/Hzdj4ib50T+4ioATnvEDJHEjmMfJIV6zZ4cW4h8wEgAHtE1QkDv/kmcrx7CDLqyZ4cR51fExH4S8kHtqU+pI4y02sioAmM9x/cTsIhPkZ9MQRRH9H6+4jlc8+weeOmD23LPAPXNMcWTqoMiBpir67m7yYUiTlfEm3ItR5S7nA8H2TRHWcine+J+vmMgbgnyAWTnAhhnCHxrfBmLk56WpEf0htGZmNiPtIsE5MMSiGsQQRuK8Y0b3cmMvHCSpICjEkg0+3IT3l54K/78RBfMXPBS/sngKrSdpA5c/9tFpJuR466ud3V7nPOdOXBf8BzxxGmqY9dje2NuFfKBBAIAlP8PqRAZcf8Q5Wg1MXoHzgSxH99Tzx242xaLDFDajrmveucAZ+rNIszJh7sTTpIg8gJKfb4+swxPfXgqxkw8BEt//iJrzJ7nwfM8o/LiUsBIp5gBFzl2PklFuIRDEs8cS1ikkjinuYn58+bDvW8rkW/mOdKGVC9xcMWT+517gXEGP+Nrsc+qL/aRgPzYNddjUHpRGingvizRbg2fjfiU3m/INRSXr5+BsZMH4MHJZ2FzebF5djqdRr169ZBKpcCT9r13kMtix/E3eJqYBqwoT7TYkwVq/gWdzvWtRb4elu4JmI7+QZd/WbfPRaJhVq45v8K34hm1gHy3DTIUtceQZR3Hc+VEEOmoLcALkOWmzf3l/3DlUx0x6UP13r+mTZuiqKgIhYWFRhq4u4Cl0wWRUC6VYUUIwTHsaHwmXk+8ExkzthvnE6RUn2yv1OofnahhKrETb9OI/ZoafKgB8m0jjh2iBui+ENHVkZIBXG/yIPW5kAACfY0DLIQRw74oxhvzb8ac5S9g0O5nAKGHNSsLUFBYiHQqZdUBZyjLrAMjg09LRxPsiYV3aXwUpjW6HIgiKwZ1yfkETEqJ22Y12SQlK+KeRHkJ4JcDqUJN5Sy6Swj3YsjneVw9fbLFyAciBGC4gNmvtNca+QNtmSLhVAnBJJxoTx2R4zOyjwEsd0cCNG6QxzVQXZ0fF/FxpFaH892DWkY+ENshRIRKBUSsVQc4if1KHd6NB3lQy5xPx+4AOQwhMMBYxeQTc6E4XXCAh+p7SdunhLYNqfMLMoydu9usUXdItFOMwknLGvvYMfLM+BxizYesvGLfuV7byAfozaESRv/LkIF7luQIYZxz+L4f5XzUMfJdonS+I0LggAlpMKE4UmqVIeBwZ2jVgeQweQV3syWX6yLpV8cGoICQm9xxOd90dwcT+y7YdDADRMAgJNTuX0bvMjBCfuVW+Pk1EfvucRz5rti0jZiaFcEV8iM+tVQIc/ezkhqZlGl0d9jktM2KbkeFrh1Rr70Qk/On8TmqyZzvgGLfBUMAUgKB74oxqSmewfe1zt9eYt+ZSMS+MrcT1xHr6d9IAZs2FRaBQqsEj+mdtZjV/bnegu7qdjdsHYnRJ/R/RxP7LigvQOvJMAAYl6Z1zrnS+ZkdROzHvgIQjaQR8qWlGRf5EftBSwUS8YI7iBfOM9xucktscWIwBOj+Lm4E0lfbWey7oAiAA0GlKqlW7p+y9oNgB0B+Ps6PI99p022SCIFJ7RYKqxKgvQUObQ84++vJWDfNQUzfm69cgxTJyNpROJ9AqwBZEFQyM3jGGYIghJ/JaAr/H+B89z63DeE0TchxVYRuy3gERBjSPsNSEQyCjb/Pozo/0q94/3cgzidQXoBARoQoVNk3hjAMEPh1gPz4cRz5zu3VRX6ck+IxhLhxRilpSV4DECEa+q2kcbmEwHIgP6EvO4LBlwQcAITAB2GgxL4QAYKgGvl8fbJVnB8P8tibtwj5rpUf/72ktp02jC6H1eVUoRTJ3sVD0Nx22+RMtgT57ji3A/IBTQAVJWwMA4Nkga2XY/+jYj/+o6xGrHhm1KZjyJFep4STqfNz9b5O+NAcJKZ08/Rre4t9FzgABBk2Hyy8SMAR+7GBbHexT9eqI/bd03z2gf5k+ndGEtA15zhi9NG99DyHqP4XxL4DtxovQEI8xYBlYOxqxtBPQjaiu+qE8+OIco63hPOzJjDHRJtDFrvX7aNzHLmXkB9/Vo5+VbdP2xj55QAWAvjnE6Mw5f8B0od2uE5C2YQAAAAASUVORK5CYII=;backgroundOutline=0;comic=0;" parent="1" vertex="1">
                    <mxGeometry x="610" y="-1039" width="48" height="48" as="geometry"/>
                </mxCell>
                <mxCell id="508" value="For a subset of synthetic datasets, capture profiling metrics for each operator" style="whiteSpace=wrap;html=1;strokeColor=none;strokeWidth=1;fontSize=11;align=left;" parent="1" vertex="1">
                    <mxGeometry x="658" y="-1087" width="131" height="40" as="geometry"/>
                </mxCell>
                <mxCell id="520" style="edgeStyle=none;html=1;entryX=1;entryY=0.111;entryDx=0;entryDy=0;fontSize=12;entryPerimeter=0;backgroundOutline=0;comic=0;" parent="1" source="509" target="4" edge="1">
                    <mxGeometry relative="1" as="geometry"/>
                </mxCell>
                <mxCell id="509" value="" style="shape=image;verticalLabelPosition=bottom;labelBackgroundColor=default;verticalAlign=top;aspect=fixed;imageAspect=0;image=data:image/png,iVBORw0KGgoAAAANSUhEUgAAAIAAAACACAYAAADDPmHLAAAABGdBTUEAALGPC/xhBQAACklpQ0NQc1JHQiBJRUM2MTk2Ni0yLjEAAEiJnVN3WJP3Fj7f92UPVkLY8LGXbIEAIiOsCMgQWaIQkgBhhBASQMWFiApWFBURnEhVxILVCkidiOKgKLhnQYqIWotVXDjuH9yntX167+3t+9f7vOec5/zOec8PgBESJpHmomoAOVKFPDrYH49PSMTJvYACFUjgBCAQ5svCZwXFAADwA3l4fnSwP/wBr28AAgBw1S4kEsfh/4O6UCZXACCRAOAiEucLAZBSAMguVMgUAMgYALBTs2QKAJQAAGx5fEIiAKoNAOz0ST4FANipk9wXANiiHKkIAI0BAJkoRyQCQLsAYFWBUiwCwMIAoKxAIi4EwK4BgFm2MkcCgL0FAHaOWJAPQGAAgJlCLMwAIDgCAEMeE80DIEwDoDDSv+CpX3CFuEgBAMDLlc2XS9IzFLiV0Bp38vDg4iHiwmyxQmEXKRBmCeQinJebIxNI5wNMzgwAABr50cH+OD+Q5+bk4eZm52zv9MWi/mvwbyI+IfHf/ryMAgQAEE7P79pf5eXWA3DHAbB1v2upWwDaVgBo3/ldM9sJoFoK0Hr5i3k4/EAenqFQyDwdHAoLC+0lYqG9MOOLPv8z4W/gi372/EAe/tt68ABxmkCZrcCjg/1xYW52rlKO58sEQjFu9+cj/seFf/2OKdHiNLFcLBWK8ViJuFAiTcd5uVKRRCHJleIS6X8y8R+W/QmTdw0ArIZPwE62B7XLbMB+7gECiw5Y0nYAQH7zLYwaC5EAEGc0Mnn3AACTv/mPQCsBAM2XpOMAALzoGFyolBdMxggAAESggSqwQQcMwRSswA6cwR28wBcCYQZEQAwkwDwQQgbkgBwKoRiWQRlUwDrYBLWwAxqgEZrhELTBMTgN5+ASXIHrcBcGYBiewhi8hgkEQcgIE2EhOogRYo7YIs4IF5mOBCJhSDSSgKQg6YgUUSLFyHKkAqlCapFdSCPyLXIUOY1cQPqQ28ggMor8irxHMZSBslED1AJ1QLmoHxqKxqBz0XQ0D12AlqJr0Rq0Hj2AtqKn0UvodXQAfYqOY4DRMQ5mjNlhXIyHRWCJWBomxxZj5Vg1Vo81Yx1YN3YVG8CeYe8IJAKLgBPsCF6EEMJsgpCQR1hMWEOoJewjtBK6CFcJg4Qxwicik6hPtCV6EvnEeGI6sZBYRqwm7iEeIZ4lXicOE1+TSCQOyZLkTgohJZAySQtJa0jbSC2kU6Q+0hBpnEwm65Btyd7kCLKArCCXkbeQD5BPkvvJw+S3FDrFiOJMCaIkUqSUEko1ZT/lBKWfMkKZoKpRzame1AiqiDqfWkltoHZQL1OHqRM0dZolzZsWQ8ukLaPV0JppZ2n3aC/pdLoJ3YMeRZfQl9Jr6Afp5+mD9HcMDYYNg8dIYigZaxl7GacYtxkvmUymBdOXmchUMNcyG5lnmA+Yb1VYKvYqfBWRyhKVOpVWlX6V56pUVXNVP9V5qgtUq1UPq15WfaZGVbNQ46kJ1Bar1akdVbupNq7OUndSj1DPUV+jvl/9gvpjDbKGhUaghkijVGO3xhmNIRbGMmXxWELWclYD6yxrmE1iW7L57Ex2Bfsbdi97TFNDc6pmrGaRZp3mcc0BDsax4PA52ZxKziHODc57LQMtPy2x1mqtZq1+rTfaetq+2mLtcu0W7eva73VwnUCdLJ31Om0693UJuja6UbqFutt1z+o+02PreekJ9cr1Dund0Uf1bfSj9Rfq79bv0R83MDQINpAZbDE4Y/DMkGPoa5hpuNHwhOGoEctoupHEaKPRSaMnuCbuh2fjNXgXPmasbxxirDTeZdxrPGFiaTLbpMSkxeS+Kc2Ua5pmutG003TMzMgs3KzYrMnsjjnVnGueYb7ZvNv8jYWlRZzFSos2i8eW2pZ8ywWWTZb3rJhWPlZ5VvVW16xJ1lzrLOtt1ldsUBtXmwybOpvLtqitm63Edptt3xTiFI8p0in1U27aMez87ArsmuwG7Tn2YfYl9m32zx3MHBId1jt0O3xydHXMdmxwvOuk4TTDqcSpw+lXZxtnoXOd8zUXpkuQyxKXdpcXU22niqdun3rLleUa7rrStdP1o5u7m9yt2W3U3cw9xX2r+00umxvJXcM970H08PdY4nHM452nm6fC85DnL152Xlle+70eT7OcJp7WMG3I28Rb4L3Le2A6Pj1l+s7pAz7GPgKfep+Hvqa+It89viN+1n6Zfgf8nvs7+sv9j/i/4XnyFvFOBWABwQHlAb2BGoGzA2sDHwSZBKUHNQWNBbsGLww+FUIMCQ1ZH3KTb8AX8hv5YzPcZyya0RXKCJ0VWhv6MMwmTB7WEY6GzwjfEH5vpvlM6cy2CIjgR2yIuB9pGZkX+X0UKSoyqi7qUbRTdHF09yzWrORZ+2e9jvGPqYy5O9tqtnJ2Z6xqbFJsY+ybuIC4qriBeIf4RfGXEnQTJAntieTE2MQ9ieNzAudsmjOc5JpUlnRjruXcorkX5unOy553PFk1WZB8OIWYEpeyP+WDIEJQLxhP5aduTR0T8oSbhU9FvqKNolGxt7hKPJLmnVaV9jjdO31D+miGT0Z1xjMJT1IreZEZkrkj801WRNberM/ZcdktOZSclJyjUg1plrQr1zC3KLdPZisrkw3keeZtyhuTh8r35CP5c/PbFWyFTNGjtFKuUA4WTC+oK3hbGFt4uEi9SFrUM99m/ur5IwuCFny9kLBQuLCz2Lh4WfHgIr9FuxYji1MXdy4xXVK6ZHhp8NJ9y2jLspb9UOJYUlXyannc8o5Sg9KlpUMrglc0lamUycturvRauWMVYZVkVe9ql9VbVn8qF5VfrHCsqK74sEa45uJXTl/VfPV5bdra3kq3yu3rSOuk626s91m/r0q9akHV0IbwDa0b8Y3lG19tSt50oXpq9Y7NtM3KzQM1YTXtW8y2rNvyoTaj9nqdf13LVv2tq7e+2Sba1r/dd3vzDoMdFTve75TsvLUreFdrvUV99W7S7oLdjxpiG7q/5n7duEd3T8Wej3ulewf2Re/ranRvbNyvv7+yCW1SNo0eSDpw5ZuAb9qb7Zp3tXBaKg7CQeXBJ9+mfHvjUOihzsPcw83fmX+39QjrSHkr0jq/dawto22gPaG97+iMo50dXh1Hvrf/fu8x42N1xzWPV56gnSg98fnkgpPjp2Snnp1OPz3Umdx590z8mWtdUV29Z0PPnj8XdO5Mt1/3yfPe549d8Lxw9CL3Ytslt0utPa49R35w/eFIr1tv62X3y+1XPK509E3rO9Hv03/6asDVc9f41y5dn3m978bsG7duJt0cuCW69fh29u0XdwruTNxdeo94r/y+2v3qB/oP6n+0/rFlwG3g+GDAYM/DWQ/vDgmHnv6U/9OH4dJHzEfVI0YjjY+dHx8bDRq98mTOk+GnsqcTz8p+Vv9563Or59/94vtLz1j82PAL+YvPv655qfNy76uprzrHI8cfvM55PfGm/K3O233vuO+638e9H5ko/ED+UPPR+mPHp9BP9z7nfP78L/eE8/stRzjPAAAAIGNIUk0AAHomAACAhAAA+gAAAIDoAAB1MAAA6mAAADqYAAAXcJy6UTwAAAAJcEhZcwAACxMAAAsTAQCanBgAADldSURBVHic1V13mBRF2v9V9cwuaclJRRAQiSKCBBFRVMyi4pnFnON5Zj1O0MNw5nBGPPTjjKDomRBBT1ARRQEBUQQVFVAQWFg2TXdXfX9UvVXVPT2zu7As3Ps8u9Pd01NdVW8OVc2klLjn467Q0AvAVQAOBdAM2xA488AYBwMDGANjDJuLMwiCEOkCBnCAcYABYCz2Y0YfEgDUf3OPBGMycrtk0txL5+Ze/Wlbcn8rzTfRY7pXuK3G7kv6XfQ4u80oSJn9XdI1BUzNpf6UzlU60r/fDOBDnmL/rCwLPk05LRwP4LWcvalFsJ3SZ4xBhAJhIMC5+o4xII73aBsO8p0jlnUlhvwEJNvPOHLcX8Xvk1lPqi3k50JyPuTTZzbyDeLp5iIApzGw06TAxVxf3B11hHwLzBACY0CQkQiFBOe6z/mwn4X86PXIOYsh3zm3RJTE+e5xnGC2HfJzQVWcz8AjjMXyTKKXYqgoC5Cp8J8gAhhbo95sLbC4DADCQKguEwHYW2O/TUK+M/GMrkSRmgvJEiJ2XSA38gW2Hvlim4l9egKLId78ngGex1FZFqJ8cwZgAKmAI3L2qNaBGb1PrC4EEAQCzDO35KDdBA4HDFEwc7Vq5Ge3V1diPxm2hdiP/14hP0DZ5gy4BzCPGQJomOMptQ5xxHIO+L5AGEjwFKsB8rOv5zLkkpAvZNQ2iCBHJoh9lhv5jFUX+bUr9l3Op6s5kZ9iWchnsBKgEkBBjXq3pcCs1gKUyA99CSEkUtyY9zGQCdeTJieGbJYgCaQS+yzShIBw74pMfLbYt56DJgypG8tBCFG1ktDrOhH72cgHLAHUIcRYXGrx72oFujOKJfsD99Nx/xBx/yzyLYLsxJj/UkLQZDmcT2KduT2g9plFPtNtSyb1jVFCyCf21SNrhnw4yK+O2OeeMvjKY8inXtU5ATB3EIwhDCUCPwRPmRvcoUR+awecRBQJ+lw659LhcwlFFVJf0YgTUjrNqDaMZGDSEKRgug9MXZdECEQYElotbFvOp6uJv2eAxzkqynyUb/bBPQbmIYJ8oI4JwIh9R/wHFVr8p+k7gjjyydCLamJGeti5KqS0hCQ1L2sOlVJq5EsITTcyJgWy9bVuj5ANCXDbL2bal/RQALk5fxv7+QCs2K/Y7GvOz0a+awPUDbA49SrxrzgGjv8vc0T/sjnfDEh/byaCRDPU5EghjISWQhINaEIQhHdIGdf51HUJcGkkASMVwJlqiGsikeq6kAljyANba/C5kMvgiyNfSrkdJACL8ngYEHchB5KtPs53TRLnGvZQx0KG5poUgJACEEQUClFaGyiBL2OqgzgfUoWmGcC4oh7OVaOSA0yo65IJEk2JsM0NPp5s8CUhH6hTCRAN/TDOIEKpwr8eWf8yclfUkk7w85lr4ElS9RqJ0iBTIVepGiklZKgmIBRSfSc14oWM2AT2oRKMS4N8pvMUSOnrAoAHowKScL+9/Px8yAerQwKwdKx1PdP+fyiQKgAkA3gi18jYUZKBJ614l8psIw6XWsdLKRCGmhiEBA8bYr8OF6BVs3bwgwyklGDg4NwDqRLOPX0u8PbXY1GaWQPmKQLgnppYngI4l8pb5MoYlDljGbGR1YGfnw/5dWsDxBQiY0r8q0BKTKixmBZ2XT0X+ST2ta+m9LzmcmmRLYSAEFASQAB7NPoTOqSPRu/2/dCqVatqdX/Gooex0f8dXAA8pXrHQepBQDIGToKJ+qPHuT39fHcK48gH6owAWOQDgAr/ZsJI8oco1g7bhXiARionSxtyLscLuhZKCAGEEhChxG4ND8Tg9pejqGBnrFy5Er7vV3sElZlKRbBSOXceFHKFUB4BExKSMRt70mPd3n4+tZqEfIk6MgJpSOaIM4hAIAiEDf9GSDZm8JGJHjs3Lh2sZR8KdY24PQwk2jTsjaGdrsTurYegtLQUGzduRBAENRpD6Ku2hFTqnkGHgDmAEPC0PWLMB+MRRNupaz8/H/KBupIALFv/h4FQepcwH4me6SOprhtfW0JZ3eTbSyiLHor7Q9e6DyXqe61xUM+/YEjXs+D7PoqLiw3X50ZEMoShVPkK3X+DfE6SAOBMSQEbMXTwn0MVmC/1Z237+fmQz+rOCIxbRRJ+RsfYuOV+6fj/ZN2b0KyDfM3kanDasg8FlMiXAkyk0L/duRjR7xakvAJIKVFRUWGfLiU456gJiFBChKpPymWVAGfGI2ACkNwIJB0Z1I4BUxKKpiI+N9vSz6eTJOQDdUQA7mAYI9EsTMmXm7RxrXupDT5GOl4qna5ogVw3IBRQhl4o0a3lMThqrxvRumkn83ySNDQhRUVF+O2337Bh0xrsvPPO1RqDFIoIAM35DMojCJmNDzCVZeSedgrU4M1zyTjUk4ItMvhq6OfnQz5QBwRgB6jPGUPgC4RC6vx/1LI38Xby4wGj64U25kjkK+Sr412K+uPQHteh6y5DEvshpUS9evXQoEEDzPhkCqYtuQvD+Cj07NanWuMQWq1IBiDUCA8VQTNuBTf31Kg5oPMIJDGcOWFQvqI+2ZZ+fj7k140RGHfxuITvC4hQIJ223WewLpOk0Cwj444CNhoJ0iKkSWEHDOtyFQZ1PSVnFzjnKCoqwqrfVuDZqTfh+w3vABJo1Xynag+jpHQdhJDgAhDE9UQIpE0i7ioDo3AwN5fAOCCltogYA6RGPqsC+bUo9t1rdSABog+VkiH0hdWP3Omog3zlxzvunfHjlU/PZD3s3/FiHNX3umr1Y+I7Y/DxsvHwxWbto0swVn07oFnD3VC6YYPmfqmIwHgv0o5V0lhUhJNsQkMIQiNeI9/8UMZynA4iucdRWeogn1ffz8+HfIY6sQHUYInKRQj4gQDXoVXjNkkK4sBwuyEGQUaYgJBArzYn4Ji+N6Npw7ZVPv2TBVMwZc7tWF/+A2C8RseNrCaMPvV9/Lh6Hr5a/g4W/fou1pZ9F6tXYKCwBNkBUucLmNQSQyoXmGsCkERAMmoA5vPzQZzv3BMJNtUA+dtYBciYXav0f6YyhAhC8AKmo6fWwAMUgkQoTDRPhNanb994Xxyx103o2KZflU///ud5eOm/f8OPGz6G61qaxA5qlq1r2KARenXeH7067w/gTiz6YSZmfvMsFv/2Jny/hHxWpSY8TcQCkB7APQkmmE4eQbmKJgDmSAEk+Pmljp/PlTQRTg0kg/Yw9ElNkA9sMwkQseiMNOPQ/r9Qlr2aDO3KwYp80vNk4DUt7IiD9rgaA/YYWeWTM34Fxv/nGsz95QXyK8jgNt4GM+5ZDSggBr06DUWvTkNRXLIGb815EF/++m+UZX4HTzEtwWClmVDIg8fAJUOoC0g4Yyp6yKK6HAB4iqOiNED5Zl8ZyxwmqQWSHIxqG/V068/qIh/YxirA9XqgdbqfEVDBHY2F0EnYCOJ25denWSMM7Xwphve5olrPe/WDBzB94cMoD4rNpEbSzE620ejkrYSmRa1xxiF34FQxFpNnjsOsHx5FEG423C9TStczzsAkU6ljDnDJILSBEC994ymGihKr88EYmFAhaFdgSB1plMwOpSbIB9smBGBFuXRVAJcIAokwI7QtIHX2TJrYvQgFRKiian12OQXH9L0Zjeo3y/u0MAzw6of34b+Lx6PM/8NIG8lFNMpIhRx6suMct7Xg8TROPnAMjhhwBf5vxtX4+veXwQWDpwnBU0lFMA/g3BIC9YcIlXOukF/qG+QjhJIahGym1AADTAQQsARRXeQDtU4Ajj9PRpEKg4FJBj8jEQQCXlpZyVKoSTE6XwC7NRuKI3pfjw6t96r2U4s3r0VpxiIfjKqM6IK06pbUAKIeSm1B4wYtcPkx/4fPl5yMl+dcjVL/V0ih1AIXElxo5HvaJnC4mqc4yksDlGvkS8lM9JEQy7mWBBSG1hEnQxBOX/IiX09WLQhB/TDppmmda0IYg8ivCCFEaNOzgSoIEUKiWcHuOLnfk7j4kOdrhHzPS+HC4+7Fwxd/j4GdTlOEFe2ZtZYo4hg53zYwoPtRuO/spejZ4kSVSPKB0GfqL1Cl8EFGIPSBwFfILt8UYPPGDHZp3BdM1FPz40uEASACQIY6ha5tDPJqhNDuR3U533Uxa2OwkTo8aV071xAKfYFMZaAte4V8EUh4sj6Gdb4W1x/zIfbudOQW96FJUUtc9qd/4tZTP0Knlvvq7ugOmTMX4dsO+S5ccdxzOLrH3ZoApEa8WgsZZIAgkJCCoXxTCFlehBP7Poi/Hv8ZejYZpYlDJaGIGEhFQjOVkNnKzISekSz23WOml4dvglo1WmNwka8Qr6N48JTC0sEO3xcoWV8Jw4EQ6LPLSTim300oatCyyufMXzYNC3/6EAfsOQrt2/So8v4Pv3wBb335D6wvXa7XG9qaPpqUcw56HEO6n1nzQW8BLPnpUzz2/kmolMVgTJogEU8z+BUhBrQ/G6cdcBfqFzYGoLyZS59uBelVqFgCk0ptpABPVyS51Ulc2xSSWXWXj/MBaLt4KwggG/la5CulBIBDCAbGJMpLlHjzChg6Nd8Ph+91LTrt1LfKZ6zZ8BMmf/x3fLn8dRPEGd7nUowccjMK0/Wr/P2kD+/AtEUPIJDlyiagIJyUOOegx7F/j7NqOuwthnUbV+K2Fw9EqVwFxlVsv2OzoThh4Fjs3m6f7L5PvxfvfHcTwFRAiacAz2MG+TwFeCntVXAoo1obidIwGnIiH9gKAkjkfBPB44DkOoIHgEls3uCjSXp3HNn3L+jTqeq1qOWVJXhj9n2YseBxCBnaQWi9XVSvNY4deCOG9Tm7yrbWbvgV//f+DVj02+vO6CXOOfhxDO1Z9e9rE/ygAn95qhekV4mTBt2DoXvlzmEAwDn/2Ami3lowT3N+yv55DgEYacCgCAFwIkXJyAfbYgKQ1ggBNOe7SRsGKTlEqAyXQt4E/Xe+AAf3ubBarU+b+xTemXsfSirWxcrFJdzwvZQCu7Xqh2MH3ow9Ox6ct80wDPH5wvcwZc7tWFMxH1JKXHDoeAzpcUb1h11LEAQZhCJEYUHVEmzO19PwyPQj4emiD+4BXlr/ETFo5HsejKqz7mBu5ANbRABRa19F8LQbF1LCRol+EQL7tDsDB/e4Cg0Km1bZ8hffvoX/zLkHq9YvdqJddkBE3dF+KEuzX6cTcNygv6KNUwdA4Ps+SktLwRhDWVkZXv/vo5j72xM4vN9VOHHo36o37O0IV9w7ABvYV2Ce1IhnDgFoVeDYBIw58QEp3SiRgi23AWyQRyFfTb6pvwtVtk+GDB2bDsPw7tdgp2bdqmx18fJP8eace7B09cfKtwUNxPF3yfABtPOrBiL1+q4wBMAYDu5xOY4bdBMK03bFOxFAWVkZMpkMAODL+bOxW+ed0W/PA6oe9naG4pI/cMnjbeFpAlDin4Gn1XkqpW0Cz5knx96JhGQj4dkaBYIS3CYt+iFhVtjs3Ggv7N/pCnTdaViVLa7d8Cte+XAc5v4w2bRPpVTGavcYGNdGkKcWYsCN8EmVn1fLsQSmL34Ic5a9iGP63YJhvc+NPE8tRg1RVlaGxg1bok2zztUf/naEpkUtsXfrszB/7bOmBiHU8yO5OvbI4eKaKWjxCqAqU3JEvqopAWKhFR26lZr7lW+qwrg3HPI16qXzC5M163/Bu589hY+XPIdMUA4TDeNqkQVZtdxjYCnlMnme2kHEDZ8Cuj7Q5A90X0KVUOrQoj9GDvobuu6yv5EA5eXlKC0txerVq9GzZ0+0a9euWkjYEeDUvxeB1ytTEiANpNJKBRipkCZ30EoDQOM9rgb0YTUCQVlhBlBQxSzAoGMh4YfleVsrKduAhyafhRlfP4FKvwxuhW8kkcEBcKEIgTv+rk6v8pSSDl5KXyNrmKtybcaAn9Z+jntfPwpTZt+xVZm/HQVG9r8DoQ4EyVCpXEXwMDUTUjjzGcJGCGNbIdFhFQSQI1rm5O5VpE+Y8GQoMnlbbFivMS4a8RgGdTnNcK7qdOxZlLzhUhk3noNgbRdwT1o7gdlgCAV+0qkCHLXP9Rjc7eSs4g+3BuF/BU487ArU83fJQr4g5IfQElH/wf654J7nIYAcnG+QbwL+lhDiZU0JwLmH9m274dITHsKYMz9E93YHRZ4hIU00C5w5eksaolCVNG5cP3uoQ7qdiTvPWIQTh4xFm2ads5DNGPuflAq3jHrDGN0iVPMuAhsillo6SNrZgsLGgHXbNdDShgTIhUYZ+VY6NCaksLXv1YTO7Xrj5jMn4dKjJ6BN0z0ivaT4QjR8r1PHlGiI9UEC2L3NfrhhxAc4e9gTaF7UTv/MNiKEQP369cE5R0nphhr1d0eALh32Rvv6B1mxT8khF/nknjufQDbygUQCSEKi5S4Zu0bCm0mWLG+gJj0f7LvnCNxz0WwcP2g06qWbwF3aTYWgZk2AtLYHFY9ICbRo1BmjBj+Ja458D53aDIz2Xv8mlUqhefPmWP7zIkyZfy0Wr347b792VBh93mSI0NMLXp0/kgLSEgPhxI3dEPLdQhL7bdZ5buTDMeCg8/9JMHP+K3hs0lVVEsJx+1+Nu8+di8FdRtm1/AbZuhRci7tQW/pcFuKInqPxtxHzMGj30xPb9TwPTZs2hYTE+Leuwb+/PAMb8S06tuuZtz87KhQ1bIrBu14CGcoo5xPySQWQata/U4yqj3U8wHEDZYLvlo18s0iDcvqhCsLIgCEIGK4dPgvNGkZdq+lfPYPn3rsBRQW74IQhN+Hggfnj3wCwfOVXmPTJrfhh/Uxj/ZPBx3QhRd/2J+H4/rehaYNdqmxv8owH8P7C+1EWrlEXGEPnNgPRtkk3tGi8C5o22AVtm3dG110HoqAaSaYdAU4f1wSov0nlBNLREDF5R4y8I2ZNKknrFGACQbnEftKR1bcETJqd9xKhqH4LgAEllb9iwvRL8cniF3HyQaPRdbfsDBhB51364saT3sSniybh7fl34o+yZdo9lOjYYh8cu88YdGt3QBVTBMxbOh0vzxyNVSXzVF+5LcL88Y/P8OMfn0VCo40KW6FL6wOxz+7HYUjvP1XZ/vaEM4Y+iomfnWnWJJLoNyF6wIh8Sg4R5xNoCbCHEwhyBUaCzo/pX3JFQl/F/q8Z/nGWBPhk0WQ8+fbFJmEEKG4+sNf5OP3QsahX2KDKwT7/wQ1YvGoahnQ7G0fuc1WV9xeXrMG/3r0G81dO0s9DJEFiEiZ6YtQQGSTUGn8pGNo364/D9r4Kg3tVXY28vWD004fhx9JpSKWjUoCnbNzEo+CZFxsvcoaCc+j8bG/dQD6Pyi6ntuYoY8BHS8bjq5/ewJH9rsZRgy/JO9DTD7obwN157yF4ftqt+PDbx5AJS+zzaRIcNWKKRPWsMDBIwYzu/GXTF3j6g1H479cTcNmIZ9CkUetqPb+u4PmpY7Ep+MmcO565QR7tXgfuhNnNDyIEkJ/zs5Hv3sdiv0kALXo4g/Lz9eSXBWsxec5NmP3dCzh20M3o333L962eueBlvP7Z7Vi7+XtDkRHO1zkFCjUrIrCxBqZlJBmdLAQEGJat+xDXT9gLFw5/Fv26HbbF/astmPH5C5j8yRisz3wPz1P6HoBdaUVjdgy+OPKJWGISoKbIp6tVB1QUAlRMkpDPOcwO4b9tXognp5+Cj785En/afwx2bd01X3NOTyRmzH0O7897HCuLFzgP1Hv40bNNZJFKqPSOGoypblGESapoGgsZ3FhKJtyEh98didOKH8Fhg87F9oBvf5yLidNuwndrpsfC3w6hw/ljia6edQnh7He5ZcinTRMdSKIF0rvMTfRI8JQK83pU1OBJfPP727h98r6YOP1GBEH+sLIajMSPqxfg1/ULbEVSdCAwq2no2Zxp/ch0iRVzSq3c77Ul7WwN9+LsKzF/yawq+1WbkPHL8eBLF+LmZwfg29+mm75w5qgxbj+Nte/iIp4Whjp2CKDmyKd27YMkYj/Q91gEMFcE60nnKQmeVitieAqAF2Dmsn/i2me7Y/6y6XknhzOOC455APed/w167zoiEgdXcQoZ4QjbD2Ylgp4xOuZchYnNPfqvZYMuGNDqz1i1YkNkx5FtCe/MfBZn3bEzZi55WudFbH9MfsT59Giwzn3ElJHAqj7gsXNUX+zTfvvM3J83tK4NQcakyu55DJy4X1usXkpqH1aCexJl4e/4ZtV71Zqoti064YbTXsF1I99Gx1YDzICzumH0vVqbRzaAmiw6gJFaANAg1QoHdroe5w15EUP7nAIm0/jqq6+q1a+thVXrlqEiLDadtkQbRT4nzqdr7v3xRuMqoObIJ+3InP/qIJefwGh5FlX46AoWrj8J+abgUX/XpFHVJeMu7L3HIRh37iycsf/DaFx/p+h4JSAlGXpW50cimfpPCgkPBRi46wW49vD/4qDe5wNQ1UUtWrTA2rVrsWLFihr1bUvgxOF/Buc8y3NhTo0glYWbzaIiXo9ty6FpA26JJarL+eYbEi0kC8ye+TEw3K9P4+rAHQgRRgrGSIvD5vLiKvf4O2LQRXj00uU4uMeV4PDMWkXpIJ9i6GrpFoPQS7hEKNGrzfG4/ojPcOoBd6KwoAF834fneUin0/A8D02aNMHKlSvz9qE2oEmjligqUIRMasz1ZIjzI8h3PR8S0jH9LwG3XLAmnG/vYOafukuE+WP91kWREYlgjKwUSQXh1LhlU1RFpgTXPd0Pz745Nu/zOPNw9mH34PZT56HXziPUWgWhahZN4iRkNrUqgPZF++GyYVNxyeET0a51F2QyGTDGkE6nkUql4HkeGjRogLZt22L2wv/gyZdG5+1DbUCH1ntbzndqJFkS8l1JAWQjn/AVtQHiRqB7LZvzXa+BzhmHXbOWAPYJDgExW71jKnlM9Y80u4jEoVnRTlhT8h3eW3wH/vxwf3z9/czkh2po16orrhk5CZcc/CpaN+hpy9gCvU4vYGia7oxT+j6Na0dMRfdd1UZTUkqk02nD9fXr10fz5s2xuWI9Js64DrN/uw/TltyZ99m1Ad077GsR6RilHA5BxKQqhX1JCrh4T3AD47yfhHzXUnBapO+Z3vs/SQfE/TLa4cL1Hmi3LWN5s8gaABdC4aNJI7XH75qyr3Hn5OG4/+Wz8Nu6n5J/oGGfrkdi3KgvcFTP21CPN4cIgQLWBMP3uAW3nzwf+/WIJqk450ilUigsLETLli2RTqfx0gd/xwPvHI6l66eCCH/OwuoZqlsKLZvsaudKEwEZfHDqJOlPSqsu6CfmIIaeFFAV8uNiPWoAui0GQZg8Ah2PpE0hInWEsTYkhJEm+eJLUk8+Rbvm/vQS5k94HYfudSXOGH577h8COG7ItRje73xMmzseB+19Zt4QL0mAVz94EFPnPYBNlausTeOpnn+25FUM3HPbRQiLGrTQNhZ5L9AHjsPCHYRzmLmLGOgx5EuZMxKYW+xH2jDWhoQUodr9KwFKK4r1A5W5aAoW9G7eKpul9t034Ux9Ty5wKZwGLVCB9xb+A3OWv4SRA27FsL65V/00rN8Ux+9/be4HaPh88bt48aNbsHrTQgDK6BLCrlBiADaU/VRlO1sDrVvsao5Z/IBEPxAhEtcBiGcA3XBNVi4gl9jP7eAp8R2Gqiw7iWvbNe+N+qmWKAvWmg2NpLbAmVR7AXEqUNNWqxAypz1hBq6JhXYcJ1G4qfIXPPfx+Zi1ZAJOGDwGPTvun6ehZFj283y88MFofPPbVKt3oQhV7dwBWpaAP0qX17j9mkDDwqbgLAUGvcG1g1BiAglE37fgqow45zvHMSMw2dqPvv1KOO1L/WCJwJc5awK7dRiEu8+Zh0Edz4ZNtkhdTCLMPrxU1mw3Qag6++gGRkx4N6VCuyuKZ+P+dw7D429fgOKSNTlaisLm0mLc/+K5uOXfA/DNqqlmrMrYsi6q58Gsyysu/wWbStdWq/0tgcKCBkjzQgAON+dSjwliPue5TDQC42I//i5dROWL/l74oVXICVDUqAkuPu4RjDn1c3RuNsyWNgew5c2B2jCBFnbIHDYlgWv1Mgf5XMf3KcL41S8v4OYXe+PVWXcik6lMbGvjpvWY+PZtuOSR3fHZ8omK+Mja5tARTICnKUgFs0QbPERx6e+5O7qVUJAuRMpLR7lZfyaFd+kwjuz4OWAigbk4X8aQr6135xpjinMD4bz7Nw90aNsdfx31Js4/8N9omu6oikkC+xchiBB5K41d14dzxfXmL60lQUrlGwJsxtTF43DX5OR088T3b8EbX96OCn+jbdu0rzk/7XB+WoetdTpWyhwGcC0A0x0hmygL4XFtjexzmeOEJ9+SxPmEfBa5m3EG3w/Vyx/yrDKIw+Dex+O+CxZjeLebkEaR3UIloJczqL+q1m5QTt8kcojzU7SKlhsiYFxiXUWyvq4Um7KymmZnDh4X+4600SlZ2tljW0BlpgK+H82Mbi3nUxtZ6WA6T0I+GXyAa2FK5+UPVWArAU4eNhrjTlmAvXc+zUgDKxVk1Z4AVPbO4zySxqU0r9LZTOcbGJrk2I6mMNXABlq4I/ZJ5zuFltw5ZpyhYf2maNF4260xzPgVCKVVXbkQmnSei/OpDZ59WzLnR4iEOd9po43zZA8AANZvzK8fmzVui8tGjMf1R3+EDo0Ha1WgDEOGZL3C9H+z477z8gbPIB7mrV6EsFQ6WUy58XO3bpBrEU/FKxHka6nStkk3eDydd4xbA2UVxQhlQu6jhgZf0vWYCqgG8p1vGQfCUCAMQjAvwd/Q8Mk3L+Laxwdi8fLPEr8n6Np+AP52+gyM2vdJFKXaQ4bAxrI/km92LGHmOL+coomcRbiYcYX8ME++gkqnaU8ek21z067OhkxUZdSmcfWql7YU1m6IJp3ifCbjQZ4qxL4LEQJIRn70PPJaE6a2fxNCmOROErRo2harN32NcZOH4f6XzkV5ZUnifQQH9TsTD1+yFPt0OB2eaJh4jyp8jLgjOnPIjBgHpCYIIFXA4GcCZCqTXxZl9tdxSsc8QrSRLNnIZwzo3f6ovOPZWtiwaU1eb6imYt/9ThNALs6n79yogysNJIIgVMwYxUX0Oc6bFOf+9CIuf3QPvPbR/XlGpOCK45/ByP1uyvGtfWDcLVYSXL+QigNemsOvEKgo99U+OjnALR0jxJNaICmi6uws8lNefQzqdkKVY9ka+KP4Z7eT0T7HhHN1OR/aiMwqCImK/ez0r6oB0BMvlf5nRv/LZBqg7IT+abm/AZM/uxnXPb0PZi9+PekXBtLpZN1qVySrTtF2rNQvY+RwoLI8RHmZ3W8/F7iFFG4hqd2axspJigr2br3tF4+sWLsIQHTMEojzIiIr75zjXMgHslRAnHxssia68FsAXGX/glDo9+TQLuAJ4IRSQVzGgNUbF+Gxqadg3PPHYMXqxVVMg9s1iZLy9Rb5zsRQVFFKpRIqy0JUlGasbZCvXUquaETH8w0UmWTShqpHDsqfeKoNWLFmXrY3ROv/I4yg/swaQSA7mBZzH40XkMT5udQOifzQFxBhGOWaPMqKXsDsbuTAOLB0zfu49eV98PRbV6KsIr99AADpVD0csMdl4EjrxBKLRA+lABjjqCwLUV6irWetvXJuCsGyuZyoRUqtCPXUCKFWKvdrcx5aN981ub1agrKKzVhTomMXMorwyLJwB+FmgYiIIjuOfCArEmjvlIjeKWOVGQxAGKjwr6MVcgLdYxYqcpi3XapFjBKf/vgUrpnQHf/59MH8bTGOC469B3ec+SX2aHmoeacQVfYwxlCxOUBpSUaPhtkt7HLjX43TLF2zk0Ttu8hHZUOcf9gT+QddC/DOrGcghOMCuhweIwaEVhLQMnGDdNczcOYg5hTHOd/+wkUyY0AoQgS+UO4fE+rNH3m43zWcKG7PuFSWddr61pViLabMuwE3TeiP2QvfzPuK111a7Y5bRk3B5Ye/itYNemnRz1C+OURZia8HzWzeQRNJYv/i0oFUCr2BPLYtyzVHzoCXz6KsJahX0ACcpc1qpSQJINxPqXdnJeIlgnDG5YITCMqFfHfGND8xZfwFoZsXz418wIp7WphBmTUKrzIuzY5XqRSwtmIRnv7oJMyYP77KSdqn2+G467w5OH7vf6AgbIWyEl9NhN5v3yBOb7meDDKqR6Wz304IW0YWAifv/TS6th9QZb9qA44+4AI8cvm36N3uGKsCTJ/shlGuBHSJI4vznWMnFKwnwDm212RMvKsCjtAPIWXU/89pNTDjUanlWhRidVKrlLih+L2K4jGU+L9Wf7IGX4aHL1qGg3teBSbTEDqcTLkFtd9+nkAQjVBGJ9ZF/llD/oXh/c6rdp9qA3Zu1Qljzv8Prh/5Fto17Wu5XW/FG02eOXYAETHxtwMxL0DkQL7zK+Z8KyUCPwSVRqEK48+2wZR1TfF2z/rXdhNkZmL5KY/VOMnCGMd5R92LcafPQ4/WR5vsogxh9ttPAlesCsemCPUGGFwW4NJDpmBoj7Nr1J/ahIF7HoUHLvsSp+33EBql21ikUw7FNQg1kbhcbzAbtwFycn4MlPWvyr9DR/xXBcp+UFZVtq9tkzdeiiOVsildnmKJVcGbSv/A19/nX5+3a5uuuOn013DNMe9g50Z7WeTLZL1NG10L6RqUEjIEOjbfD7eduAD9uxxbvQFvYzjugCvx2OU/4cCul6FxYTu1Q4ujFsxnzGCMqAOo84R0MCE/TgBa/3Pl/oWhgOeUk1TlBUQMLCfpEl8nyLgt6KD4e1ZbELh7ymH429NHYPXan/I+t2/X4bjnork4ZfD9SLEG+OWPRYnEnfbSUeQLiWYNdsPpQx7B2NNnYZdW2zbeX1MoSNfDRSMeRfuiwVFjMIb8JAngnsS2iIkjX8ZW5kgADH6g3wrCgWhiOhmSXC8dUtFEwE3QhelCv1A3n7QyqFH9ZqhfrxGW/v5fXPXIXjh6wNU48+gxeftw7NArMaDHMXj/i38hkylHYUF0V5LfN6zQ8QNgtzaD0L/LsThu6F+QTm27LN/WwsLvZuOrXyYjVaDrK506S3p9uQTMJhHGk3MIIlIUGke+ioaxCHdLKbPEfxXMnwW0wbTqELkR9oXK+p0j6r16CRCKAFwUoLIyAGMBXv9iHOYsnYTjBt+I4YNG5XzuTi074swjbk+UAF1bHAEU74r99j4aPbsMQPPmzeHxbe/mbQ3c9eKfgEJhjDzDaEJrOgfRZib1ScwITEZ+FnCJMAxV/p9yMfRH0YYEkFCWl9FF+la7TkC9VBGMRdIG+cCvDG3KlgO/lSzFk9POxS3jD8KiZZ/k/W1SQLjLTkPQZ7ej0bppRwRBgMrKyiq3tdue8Mq7D6OCr4IJDMHR+YBFfkznOx/WBsiFfCstpLHelUslTLrVlCXnqQYKA2kCLTZRw02ABcZ3VRQihdqsSeYhKhDy9SnZE8t+n4XbXz4AD00+Dxs356glyAG+7yMMt11tX23CS5/coA4SEGxOcyHfQXesIiiaE5AR6a+igcJXssZu264hD9v27Xw0Du12Ewp5YyX6JdcLNJl6u4hkahfsEGqFLrlk8UG4j9OLIeFIAU55eg+Yvfw5/PnJrnhh2m25O/Y/CmMfOwPwKrQUheFUd3uDJINPJuAoRzZQgLJhbvhXCPX6N+bBpEqZXiHB9T0ez954rKhhU4w68lY8eOH36N9hlA27CphXy8SDGlKvE8gF1mi0uQVTvasjjBm5EW8tGIurHuuOmfNfrs7c7vDw+x8rMW/V8+qEEmrIdq1N7iWm813KiBSFRjg/8kitDhhTb/kMpa3+1Tlze6ze5pULGjVoiitGjsctIz9Gx2YHQIQ6i+cDYahW6Zp9B0MK2uQQLTRQquSh0LJbwKnfp7OuYimenHEaxjx3KJb8OCe5uRwG544GNz16RLR+ETbMDve6s8rKGIEx5ANZ2UBrDGbNB1O6nNbFmQogEsP6CY/NOB4r1i7IO4guu/bD6NOn4qz9JqB5we4q8qYLQentmmGgpEuu9YaAnQDa/s3lftpfIEXbqHrAsnUz8Og7J1cxxTsufPT5m1gfLDScb7aE4RbppoQNlijiq4RzFoUmx/K5/pGEXymilj/cFxYrwvh+3Qz8Y+ogPPP+JSgpW593QEP7nIS7z1mAQ7reqNYGhDp2HyjPoKI0VK+bzwekiiLbpCjOT6Xt6iCmQ82pdG7XbkeXAo9OOddIvazNINwaC8DBESJ+YNw2yFEQQmLdko5ax+e8nFDrfVfkuDH+L1ZOwOhJPTHl47uqHNjJw0Zj3Glfo89OpyAMAEiGyrIA5ZtzbwNDROeqAeUWqg2oqDScFm/QKp569epV2Z8dESa8Ng6+94dBsCvx3P2CyB4ym0Y4EiDJK8hSAe76f9dfpsWbKjZiX/JkVQGtzgHAJTwOZGQx3vvuNtw8cW98uui1vANs0qgVLjt2PK47ajp2bjAIFZsDXdaVO3avu2nFHVeRSy8yMUo9WLWQzOU7MvcLIfD652PNfNs1CZbhuFNoIx2kA8h2CxyXMJYLsIs/mc7cSe3yBRkq/0ZEvLiFHoR8zgGvgOtXvgHrKr/DhE9G4e5Jx2D5ynl5B9u9474Ye9Z0jNr/MRSmGuOX1d8m3ufgH6aMS0+OEZPOy6Zg3ka24yI6F9z4wHFgaT9i8HEH+a70jRiH+thwvkMIFA9wcgFuAIg0g1UcARljzG3Luoq0qwfnAEtx9S4/CXBIhIyDcYYfij/EXW8OwcD25+CMQ+5GvYLkmn8AOHroBdivz7FYueb75BsieJSRS6aok0GHlKVxWKqbwdxRYMXKpVi64c1I+lwRtJUCRv05NoGr841NEI8EItEG0HcbM4BBBBJBoJdCk97Vt0WWUnkAT3G7NIvOC5iyxrVO/vzXZ3HDxB54c/ZDeQffrHFr9Np9v+QvtalCkUUW+UqawbnjcrdO2Z5w4Z29cOGdPbB0xZdV3jtm/Ijo/gcawbRIhXOHIMj6T7D8k8LAQEJRKIuxCOOK+0UozE4crsg13MYBzjk8vakh50AqxdWfB13uZat+KsQ6/OfrmzH6+QGYveiNGk2glAIlpX9E6v9NWbiwBCGkMzKmb8oVWq4DCEMf543rjjVli7GmbAmuH78PHnjxfGwqTfaW3vno3ygOv4ssTaPiGfJ6IruEwd4DIIvY42FgxwtIAvvrIHAMLma/MWqAKeSrQk+9WjfFzUuOlRXOs956nSrgWL1xER6d+ieM+/cx+Pn3JdWaSI+n0aZJl0iAw9TwaTvWFHOa8qjcFcF1AStWfYtz7uyEdZXfOlXRwKzvnsFlD3XBK9Oz34Uw4f3LIq+Ld63+yM6gMdEv9cS4wZ+socssIxCxO5UPIIREmBERUU9qAFLrVs7AtcxRPrldmq2KPbUKMAQhkS5kECKEH/hIpYHv1r+Hv77QB0+/fWWOeISFlFeA286chYN7XOFwPrJq+Mwr1HRlz/YSAJ8ueBPXPtUPJf6vEfeN/irEekz67EZc9ciemPuN2nLumdfGAPU2ZYl6nrI6n3YGdwNCgOMBuGHgGOfTYaIEMJtAMJX5C0Npdv8wyQf6ZBxcyyC1+TKpAn2csku1SRqkCzmkFAh8H6kCwCtUBMJSAjO/fxyXP94R785+Mu+kNm/WEhePfBB3njkPu7c6yNbBOaXboUDiSxXrEv75ytW457URCFlZBImRpeaau1dvXoR/vHE47nz+eMxYcn+U+81Sd+f3VDFlVLEGBvuyiHiHZPRajAC0cw+m3D+mt2yhbdFoEYi5nYNW5JJRyDl3jEKtEhyfPF2gOD/wfaQLgVQhsy9BTqkXIpf6K/HCZ5fhhqcHYu6S/JswdmrXG7ef+z4uO+wVtG20Z/R1qoFzTOd1lOL/4ddFuOrB/pjxzYOWg529BUzOglSiox4Xrn4dKCyx7/6JId++Rc26hIBj/MWzfwmcT+eGAKTOv8b9xtAX5jo9xHgIsWARZxr5tOsn6TpNBKk0QxCGyPg+vALAK+SRN2DTBDBNDKvLvsRDU4/Cva+cgjUbfsk74UN6n4B7L5yPE/rdg3peCwjfvmNQBIDwiRi2vQ54YvI1uG58H/yyca7NT2iEM89BvIP8VIEi/lRB1E4y93qWeNzVVUYCcEQsf7ObWB7kA+QFmOVQjgMJAEIbgAkbNjN6slEmXBsgtozMFHUyiVRKZRMzFb6yBwpI7Ns1Aak0wNNSvQFLT4iXAhasmoTrn+uGZ9+9ocrJP37oNXjo/B8wuNOFkCGzG1A5qeZtBW/PGo/z7u6IaYvvB3ho3DZXzEfe7uVyfjyTmc5GPiPudwJAACzKyDSLdywH8iXcmsCYCck5Q+ALBL4ATymlYqWAQj5zkG/sQ8asZQ7lJaRSDH4mRGVFBl7a3iOYWq0tdRBJBOo7wQEuJAS5OByQogIfLL0XX/z4Mo7tPxqH9s+9OKN+YREuGfEkjlx9BZ6d9hd8t/Z9OzOi9iNBb338JN7/6gn8umE+TUfETYtH7Uh8E+e6EhaISmBzmdpxud2Jw5AKNjZaFZwfiwTCEeXamudqIYWk9C/dZeKL+m7G9UOMU2abkRIeV8gvL9fr87kiHOFGEen3KXXMBSBDTXQckJ6qE2ChxObwF0z85ELMWvwcTht2F7p3GJwTMR126oVbz5qGWQsm4ZVZf8Xa0qVYs+HnnPfXBNZu+BVvzHwEn3//KtbpnULd2LyJ2btEQJa/NrXcwA1BFrLcKU2w9iPZv3gDVSAfiO8V7DxQSr37N4MV6UZKOD0ybcWiDlBRQL8yQGV5Rm23ohMxUkobltXBG6JwCO19MJVQMit+tTRAqO5bUfIx7pgyBP12PQ1nHXovmhW1zXo+wf57nYj99zoRj792JZasnIFKvxyFsdfD5lw2rkEIgVVrluOrpdPx6aKXsXzNbIQyEynGcPcPiiM/YrjRp8PFNOdmFh0pQBzt/gaw8xcx5R1CqAr5gEsARnYo4y0MBIIMbbDEbPkXEQmLGoDx5zMOg3zlATDL6SS2pPUwaDCSqdi9x8mHVxMYhpZIhJCqkJQDX616AQuffR3De1yLUw4ekxeJl4x8GEIIBGHVbyOLw+0TjsW8H982qjBigcfEvbvkjcWR7wRt7MJaoz0tLiQimzxHzDPH2idhHHkvYDWRDxjaIcRbMzLUW7ZyvfzHoFv/4xQriDVIA/EzoUK+5nxlmVpZofBtt2Ax+9/rN2NFVg7TqmFtJJJxpAwliYCV4p1vxuKqpzrjw/kT8yKSc46CdHJNQD4psHDF+3Dfc2C43Omna91Hzp39BV03zo3mmXOy7t0AUIK1z6COo4W7qBHyAUd4sBhCwwCQsJzPDNmx6L0xIcAZ4PsO8vW2LO6uG8x4CzFu0Nuzufvw2ZdK2VgBTXIqHZ3k4sof8K+PzsTfJg7Bdz/n35IuDlWpgJZN1U4gET3PLVJdK97010U+EYAjJSJIdechdh5J88YMPmt8o8bIB2CKegDm1OFLtfs303qf9uFTz0nmfN1ENuczB/nUT1J2ZARBSYeIAcUBek+eW+NnJtZTr5YjN8qNNv5U/An+/tq+ePSNs1G8uXY2cSbJRpY4HNFu/Hzdj4ib50T+4ioATnvEDJHEjmMfJIV6zZ4cW4h8wEgAHtE1QkDv/kmcrx7CDLqyZ4cR51fExH4S8kHtqU+pI4y02sioAmM9x/cTsIhPkZ9MQRRH9H6+4jlc8+weeOmD23LPAPXNMcWTqoMiBpir67m7yYUiTlfEm3ItR5S7nA8H2TRHWcine+J+vmMgbgnyAWTnAhhnCHxrfBmLk56WpEf0htGZmNiPtIsE5MMSiGsQQRuK8Y0b3cmMvHCSpICjEkg0+3IT3l54K/78RBfMXPBS/sngKrSdpA5c/9tFpJuR466ud3V7nPOdOXBf8BzxxGmqY9dje2NuFfKBBAIAlP8PqRAZcf8Q5Wg1MXoHzgSxH99Tzx242xaLDFDajrmveucAZ+rNIszJh7sTTpIg8gJKfb4+swxPfXgqxkw8BEt//iJrzJ7nwfM8o/LiUsBIp5gBFzl2PklFuIRDEs8cS1ikkjinuYn58+bDvW8rkW/mOdKGVC9xcMWT+517gXEGP+Nrsc+qL/aRgPzYNddjUHpRGingvizRbg2fjfiU3m/INRSXr5+BsZMH4MHJZ2FzebF5djqdRr169ZBKpcCT9r13kMtix/E3eJqYBqwoT7TYkwVq/gWdzvWtRb4elu4JmI7+QZd/WbfPRaJhVq45v8K34hm1gHy3DTIUtceQZR3Hc+VEEOmoLcALkOWmzf3l/3DlUx0x6UP13r+mTZuiqKgIhYWFRhq4u4Cl0wWRUC6VYUUIwTHsaHwmXk+8ExkzthvnE6RUn2yv1OofnahhKrETb9OI/ZoafKgB8m0jjh2iBui+ENHVkZIBXG/yIPW5kAACfY0DLIQRw74oxhvzb8ac5S9g0O5nAKGHNSsLUFBYiHQqZdUBZyjLrAMjg09LRxPsiYV3aXwUpjW6HIgiKwZ1yfkETEqJ22Y12SQlK+KeRHkJ4JcDqUJN5Sy6Swj3YsjneVw9fbLFyAciBGC4gNmvtNca+QNtmSLhVAnBJJxoTx2R4zOyjwEsd0cCNG6QxzVQXZ0fF/FxpFaH892DWkY+ENshRIRKBUSsVQc4if1KHd6NB3lQy5xPx+4AOQwhMMBYxeQTc6E4XXCAh+p7SdunhLYNqfMLMoydu9usUXdItFOMwknLGvvYMfLM+BxizYesvGLfuV7byAfozaESRv/LkIF7luQIYZxz+L4f5XzUMfJdonS+I0LggAlpMKE4UmqVIeBwZ2jVgeQweQV3syWX6yLpV8cGoICQm9xxOd90dwcT+y7YdDADRMAgJNTuX0bvMjBCfuVW+Pk1EfvucRz5rti0jZiaFcEV8iM+tVQIc/ezkhqZlGl0d9jktM2KbkeFrh1Rr70Qk/On8TmqyZzvgGLfBUMAUgKB74oxqSmewfe1zt9eYt+ZSMS+MrcT1xHr6d9IAZs2FRaBQqsEj+mdtZjV/bnegu7qdjdsHYnRJ/R/RxP7LigvQOvJMAAYl6Z1zrnS+ZkdROzHvgIQjaQR8qWlGRf5EftBSwUS8YI7iBfOM9xucktscWIwBOj+Lm4E0lfbWey7oAiAA0GlKqlW7p+y9oNgB0B+Ps6PI99p022SCIFJ7RYKqxKgvQUObQ84++vJWDfNQUzfm69cgxTJyNpROJ9AqwBZEFQyM3jGGYIghJ/JaAr/H+B89z63DeE0TchxVYRuy3gERBjSPsNSEQyCjb/Pozo/0q94/3cgzidQXoBARoQoVNk3hjAMEPh1gPz4cRz5zu3VRX6ck+IxhLhxRilpSV4DECEa+q2kcbmEwHIgP6EvO4LBlwQcAITAB2GgxL4QAYKgGvl8fbJVnB8P8tibtwj5rpUf/72ktp02jC6H1eVUoRTJ3sVD0Nx22+RMtgT57ji3A/IBTQAVJWwMA4Nkga2XY/+jYj/+o6xGrHhm1KZjyJFep4STqfNz9b5O+NAcJKZ08/Rre4t9FzgABBk2Hyy8SMAR+7GBbHexT9eqI/bd03z2gf5k+ndGEtA15zhi9NG99DyHqP4XxL4DtxovQEI8xYBlYOxqxtBPQjaiu+qE8+OIco63hPOzJjDHRJtDFrvX7aNzHLmXkB9/Vo5+VbdP2xj55QAWAvjnE6Mw5f8B0od2uE5C2YQAAAAASUVORK5CYII=;backgroundOutline=0;comic=0;" parent="1" vertex="1">
                    <mxGeometry x="609" y="-1140" width="48" height="48" as="geometry"/>
                </mxCell>
                <mxCell id="510" value="\(\vdots\)" style="text;html=1;align=center;verticalAlign=middle;resizable=0;points=[];autosize=1;strokeColor=none;fillColor=none;fontSize=20;" parent="1" vertex="1">
                    <mxGeometry x="583" y="-1087" width="100" height="40" as="geometry"/>
                </mxCell>
                <mxCell id="514" style="edgeStyle=none;html=1;fontSize=12;backgroundOutline=0;comic=0;" parent="1" source="511" edge="1">
                    <mxGeometry relative="1" as="geometry">
                        <mxPoint x="659" y="-1015" as="targetPoint"/>
                    </mxGeometry>
                </mxCell>
                <mxCell id="511" value="Dataset, operator" style="strokeWidth=1;html=1;shadow=0;dashed=0;shape=mxgraph.ios.iTextInput;strokeColor=#444444;buttonText=;fontSize=8;whiteSpace=wrap;align=left;backgroundOutline=0;comic=0;" parent="1" vertex="1">
                    <mxGeometry x="675" y="-1025" width="70" height="20" as="geometry"/>
                </mxCell>
                <mxCell id="518" value="" style="edgeStyle=none;html=1;fontSize=12;backgroundOutline=0;comic=0;" parent="1" source="513" target="509" edge="1">
                    <mxGeometry relative="1" as="geometry"/>
                </mxCell>
                <mxCell id="513" value="Dataset, operator" style="strokeWidth=1;html=1;shadow=0;dashed=0;shape=mxgraph.ios.iTextInput;strokeColor=#444444;buttonText=;fontSize=8;whiteSpace=wrap;align=left;backgroundOutline=0;comic=0;" parent="1" vertex="1">
                    <mxGeometry x="675" y="-1126" width="70" height="20" as="geometry"/>
                </mxCell>
                <mxCell id="539" value="independent variables" style="shape=table;startSize=20;container=1;collapsible=0;childLayout=tableLayout;strokeColor=#000000;strokeWidth=1;fontSize=10;fillColor=none;backgroundOutline=0;comic=0;" parent="1" vertex="1">
                    <mxGeometry x="306" y="-800" width="157" height="40" as="geometry"/>
                </mxCell>
                <mxCell id="540" value="" style="shape=tableRow;horizontal=0;startSize=0;swimlaneHead=0;swimlaneBody=0;top=0;left=0;bottom=0;right=0;collapsible=0;dropTarget=0;fillColor=none;points=[[0,0.5],[1,0.5]];portConstraint=eastwest;strokeColor=#000000;strokeWidth=1;fontSize=10;backgroundOutline=0;comic=0;" parent="539" vertex="1">
                    <mxGeometry y="20" width="157" height="20" as="geometry"/>
                </mxCell>
                <mxCell id="541" value="&lt;i&gt;Operator&lt;/i&gt;" style="shape=partialRectangle;html=1;whiteSpace=wrap;connectable=0;overflow=hidden;top=0;left=0;bottom=0;right=0;pointerEvents=1;strokeWidth=1;fontSize=10;fillStyle=auto;fillColor=none;backgroundOutline=0;comic=0;" parent="540" vertex="1">
                    <mxGeometry width="53" height="20" as="geometry">
                        <mxRectangle width="53" height="20" as="alternateBounds"/>
                    </mxGeometry>
                </mxCell>
                <mxCell id="ppgqF4-669KXMRt9QfF0-554" value="&lt;i&gt;Data&lt;/i&gt;" style="shape=partialRectangle;html=1;whiteSpace=wrap;connectable=0;overflow=hidden;top=0;left=0;bottom=0;right=0;pointerEvents=1;strokeWidth=1;fontSize=10;fillStyle=auto;fillColor=none;backgroundOutline=0;comic=0;" parent="540" vertex="1">
                    <mxGeometry x="53" width="54" height="20" as="geometry">
                        <mxRectangle width="54" height="20" as="alternateBounds"/>
                    </mxGeometry>
                </mxCell>
                <mxCell id="542" value="&lt;i&gt;Hardware&lt;/i&gt;" style="shape=partialRectangle;html=1;whiteSpace=wrap;connectable=0;overflow=hidden;top=0;left=0;bottom=0;right=0;pointerEvents=1;strokeWidth=1;fontSize=10;fillStyle=auto;fillColor=none;backgroundOutline=0;comic=0;" parent="540" vertex="1">
                    <mxGeometry x="107" width="50" height="20" as="geometry">
                        <mxRectangle width="50" height="20" as="alternateBounds"/>
                    </mxGeometry>
                </mxCell>
                <mxCell id="543" value="dependent variables" style="shape=table;startSize=20;container=1;collapsible=0;childLayout=tableLayout;strokeColor=#000000;strokeWidth=1;fontSize=10;backgroundOutline=0;comic=0;" parent="1" vertex="1">
                    <mxGeometry x="463" y="-800" width="101" height="40" as="geometry"/>
                </mxCell>
                <mxCell id="544" value="" style="shape=tableRow;horizontal=0;startSize=0;swimlaneHead=0;swimlaneBody=0;top=0;left=0;bottom=0;right=0;collapsible=0;dropTarget=0;fillColor=none;points=[[0,0.5],[1,0.5]];portConstraint=eastwest;strokeColor=#000000;strokeWidth=1;fontSize=10;backgroundOutline=0;comic=0;" parent="543" vertex="1">
                    <mxGeometry y="20" width="101" height="20" as="geometry"/>
                </mxCell>
                <mxCell id="545" value="Cost" style="shape=partialRectangle;html=1;whiteSpace=wrap;connectable=0;overflow=hidden;fillColor=#f5f5f5;top=0;left=0;bottom=0;right=0;pointerEvents=1;strokeColor=#666666;strokeWidth=8;fontSize=10;fontColor=#333333;fontStyle=1;backgroundOutline=0;comic=0;" parent="544" vertex="1">
                    <mxGeometry width="101" height="20" as="geometry">
                        <mxRectangle width="101" height="20" as="alternateBounds"/>
                    </mxGeometry>
                </mxCell>
                <mxCell id="553" value="Nsight Compute" style="text;html=1;align=center;verticalAlign=middle;resizable=0;points=[];autosize=1;strokeColor=none;fillColor=none;fontSize=9;" parent="1" vertex="1">
                    <mxGeometry x="588" y="-991" width="90" height="20" as="geometry"/>
                </mxCell>
                <mxCell id="ppgqF4-669KXMRt9QfF0-556" value="" style="group" parent="1" vertex="1" connectable="0">
                    <mxGeometry x="311.57" y="-714" width="326.87000000000006" height="30" as="geometry"/>
                </mxCell>
                <mxCell id="151" value="\(OperatorCost(\textit{Operator}, \textit{Data},\textit{Hardware}) = \text{Cost} \)&amp;nbsp;" style="rounded=1;whiteSpace=wrap;html=1;fontSize=14;align=right;arcSize=17;backgroundOutline=0;comic=0;" parent="ppgqF4-669KXMRt9QfF0-556" vertex="1">
                    <mxGeometry x="-80" width="406.87" height="30" as="geometry"/>
                </mxCell>
                <mxCell id="554" value="" style="whiteSpace=wrap;html=1;strokeWidth=1;fillColor=none;" parent="1" vertex="1">
                    <mxGeometry x="463" y="-780" width="101" height="20" as="geometry"/>
                </mxCell>
                <mxCell id="524" value="" style="shape=image;verticalLabelPosition=bottom;labelBackgroundColor=default;verticalAlign=top;aspect=fixed;imageAspect=0;image=data:image/png,iVBORw0KGgoAAAANSUhEUgAAAgAAAAIACAYAAAD0eNT6AAAABHNCSVQICAgIfAhkiAAAAAlwSFlzAAAOxAAADsQBlSsOGwAAABl0RVh0U29mdHdhcmUAd3d3Lmlua3NjYXBlLm9yZ5vuPBoAACAASURBVHic7d1tjF9VftjxLxizq8yYLA5m1paSLo9B2IpUaSu5zVYJtXclENRVIh6SF2vF9UpeBuM1Jaz6pqJKX/AQvEhNu3mRvIzaRkrUbYKNtKGka1NsQKhguywP2s1DxW4WZ43HUBhsj/vi/KcMwzz8//ec8z/33Pv9SEeMxvzv754zM/f3u0/ngCRJkiRJkiRJkiRJkiRJkiRJkiRJkiRJkiRJkiRJkiRJgkngt0rvhCRJGp8J4FngIvBI4X2RJEljsDD5zzeLAEmSOmyp5G8RIElSh62U/C0CJEnqoGGSf7Ii4JLYDQx2pPQ+SJJUwhRwC7AVuAm4BthASOYXgTPAu8DrwKvAi8AzwHuLtjMJHAK+NELsfws83HzX4w1TqazUJEmqyXrgPuAYzfLeh4RkfzewlpD8Dzfc1sN5u7oyCwBJUh9sAg4Qzt5jc998ext4JXIbD2fs84osACRJXXYZsA+YIV3iT92KPBhoASBJ6qobgJcpn+BbeSXAAkCS1EU7CA/xlU7so7RdWUZiGRYAkqSu2Qmco3xCH6UdAdblGIzlWABIkrpkNzBH+YQ+SjtMeJtgrCwAJEldsQM4T/mE3vrkT8OdtQCQJLXN9dR3z3/sl/0XsgCQJNVuLfU87V/8zH+eBYAkqXYPUT6hV3PmP88CQJJUs02knd2v82f+8ywAJEk1O0D5pD5se4WWJH+wAJAk1Ws9dZ39v014XiHapSk2IklSpX6TsHRvLTYCv1Z6J+aVroYkSWrqBdLlo+OERYM2E4qKicHX+wb/lirOwSwj0YAFgCSpRlOkmfFvFpgG1qwQaw1w3+D/jY33AS15DsACQJJUo3tIk/y3jRBzG2mKgB2NeryAzwBIkvpqa4JtPAA8M8L//wzwYIK4X0ywjWheAZAk1egQcfnnOCtf9l/OGuBEZOzvNIj7CV4BkCT11Q2Rn/8D4EKDz10A/jAy9o2Rn7cAkCT11uciP//dQp+F+H3nktgNUP4yfIo+SJL6Zxa4POLz6wiTCDX97ExE7FngsxGf57KYD0uSem8KuIXwQN1NwDXABj6eXOd94B3gh8BrwFHgWeAnY9/TT5uL/HzvT0B9CFCS+mU94Z32YzQ7bs8RCoHpwbZK+TFx+efmiNhbImO/ExE7GQsASeqHTYSFc1LOnX8WeIIwxe24fb/B/i5s34iIvT8y9hsRsZOxAJCkblsL/DZ5F805C/wrEi10M6T/FrnPJ2j+GuDJyNhPNYibnAWAJHXXDcDLjO+Y/hJw3Vh6Bv8uwf7ubRD3/gRxDzSIm5wFgCR10w7gDOM/rr8L3DGm/sXu6yywfYSY24GPEsS9s1GPE7MAkKTu2Q2cp9yx/RywK3MfJ4EPE+zrLOFKwEq3Ay4jrAqYIvlfAK6K7n0CFgCS1C27SbNKXmybI38REDsd8MJ2kvBw3xZCcTE5+PoB4u/5L2zPZRmJBkzgktQdOyh75r+4nQNuz9jfFCsCjrvtyTISDVgASFI33ECZe/6rtXeBazP1eS3wdgv6OGybAa5M0XHXApAkQUiE/wW4ovSOLOFnCfuWY/baz9CSSXWG9G3gdOmdmOcVAEmq329T/ux2tbY/cZ8ngcMt6New7QxwdeIxiGIBIEl120TeSX5StRng84n6XFvyv0h4i6BVLAAkqW4HKJ/chm2PJehvjcn/GC1cwM8CQJLqtZ46zv7n21niHoKrMfmfJqyy2DoWAJJUr/son+BGbV9v2Ncak/854LaG/c3OAkCS6vUC6ZLVccJ96s3AxKBtHnzveMI4zzfoZ43Jfw7Y2aCvY2MBIEl1miLNjH+zwDQrT4W7hnC1YTZBvDlgwwj9rDH5n6PlyR8sACSpVilmwZsFto0QcxtpioC7hoxXY/I/TYsv+y9kASBJdXqS+GP4dIO4exPEHWY53BqT/zFa+sDfUiwAJKlOsQvhHGfly/7LWQOciIz91Coxakv+ZwjPSrTuVb+VWABIUp3eIu74HTMxzf7I2G+ssO2cyf9V4EcJtzcDPErLZvgblgWAJNXpFHHH75sjYm+JjL3c/P05k//hwfYvJzw/cQj4oMF25ghL+u4h0cI+TVySYBuxSTzFPkiSRjdLSGZNXUGYmKeJdYSz36Zmgc8u+t4kISl/KWK7yzkC3EqYNGmhCWA78EXgl4BfBD5HWMDoUsL4nAJ+ALwGHAWeHXyvel4BkKQ6xT6Nvy4i9hWRsf/vou1NEBJrjjP/I5F97SwLAEmqU823AN5esK1xXPbvnEtL74AkqZjYdeW/EvHZL0fG/ungvyUu+2vAKwCSVKfY1wBP0Pw1wJORsf8Uz/yjeAVAkvrr9cjPbwbubfC5aeJuHwD8FZ75F+cVAEmq093EH8NnCU/BD2s78FGCuLmWMO78mX9KFgCSVKerSbcY0F5Wvh1wGWHioBTJP1cz+Y/IAkCS6nWUdAn0JGGGvy2ERDo5+PoB4u/5m/wTcyIgSX03BdwCbAVuIizEsoHwXjnA+4RZ537IJydy+cnY9zSPaeD3Su9EYc8R7vk3ndSot7wCIKk26wlr0x+j2XFrjlAITA+2VbP15LufXkPr3Zl/ShYAkmqxibCMbMqEdxZ4Atg4xn6k9gTlE3GJ5gx/kSwAJLXd/ANoM+RLJu8DDxM3t34pGwmFTOmEPM7mmX8CFgCS2uwG4GXGl1heAq4bS8/SepDySXlczTP/RCwAJLXVDuAM408w7wJ3jKF/Ka0lFC+lk3Pu5pl/QhYAktpoJ3COconmPPC17L1M6zpC8VI6SedqnvknZgEgqW12k2aCm9g2B+zK3NfU7qBs4ZSreeafQekfqiQttINw9l362DTfzgG3Z+1xertoRwFl8m+50j9YSZp3PWXu+a/WZoAbM/Y7h6/S7ml7h21e9s+o9A9XkiA8xDbOp/1HbS8SXkesye3U/UyAZ/6Zlf4BSxLAQ5Q/Hq3W9mfrfT7XEoqX0mNn8m+h0j9kSdpEHdPZzgCfzzQGOc1PpNTG2ytLNS/7j0npH7QkHaD8sWjY9limMRiHKeBx2j1roGf+Y1T6hy2p32pbzOYscGWWkRifK4F7gedp19sCJv8xK/0Dl9Rv91H+ODRq+3qWkShjA3AX4SrMQeD7wClgFvgAeBv438CfEBYdylWsmfwLKP2HJKnfXiDd8eQ44V73ZmBi0DYPvnc8YZzns4xEu00Af0mePOA9/0IsACSVMkWaS9CzwDSwZoVYawhXG2YTxJsjnDn3hcm/oywAJJVyD2mS/7YRYm4jTRFwV6Me18fk32EWAJJKeZL4Y8h0g7h7E8Q90CBubUz+HWcBIKmUQ8QdP46z8mX/5awBTkTGfqpB3JqY/HvAAkBSKW8Rd/zYFxF7f2TsNyJit53JvycsACSVcoq448fNEbG3RMZ+JyJ2m5n8e8QCQFIpsQ/jxbw3vi4y9ocRsdvK5F+RNqxMdUnpHZDUWzHHH49dnzRBeK7hVzJs+zngVsIsiotNAbcAW4GbgGsIr1hODP79fcLVlh8CrwFHgWeBn2TYz97xDF5SKd4CaIdxn/mvJ8zJcKzhNucIhcD0YFtqyAJAUilvEnf8+UZEbB8CDMaZ/DcRXp9MOZ3wWcIUxRuTjUiPWABIKiX2NcATNH8N8GRk7C68Bjiu5D+/HPFMplgXCbcKHgYuTzU4fWABIKmUFBMB7W0Q9/4EcWufCGhcyf8G4OVMcZZqLwHXJRqjzrMAkFTK3cQfg2aB7SPE3A58lCDunY163A7jSv47gDOZ4qzU3gXuSDJSHWcBIKmUq0m3GNBeVr4dMH8ZOkXyvwBcFd37MsaV/HcC5zLFGaadB76WYLw6zQJAUklHSXfQP0l4uG8LYY6AycHXDxB/z39hey7LSOQ3ruS/mzSFXWybA3ZFj1qHWQBIKmma8oli1LYny0jkNc7L/uczxWnSzgG3R45dZ1kASCppPWlfC8vdZoArs4xEPuNK/tdT5p7/MD+zG6NGsKMsACSV9gTlk8Sw7ZFMY5DLuJL/Wsb7tP+o7UXaMXtuq1gASCptI2FCl9JJYrV2hvDgYi3GOcnPQ5nipGz7G45jZ1kASGqDBymfIFZrMcsPj9u4Z/ir4TbODPD5RqPZURYAktpgLWESl9JJYrl2jHouIY97bv8DmWLlaI+NPJodZgEgqS2uI0ziUjpJLG6nCavU1aDEwj41nP3Pt7PU9xBnNhYAktrkDspOILO4nQNuy9rjdMad/CGs6lf6ZzRq+/oIY9ppFgCS2mYX7ZlIZmfmvqZSIvkDvJAwznHCcxabB/2ZGHy9b/BvqeI8P+SYdp4FgKQ2+ipppu1t2s4TZrSrQankP0W6qZynWXkq5zWEqw2zCeLNARtWiNUbFgCS2up2yjwTcBov+6+W/AHuSRBjFtg2Qn+3kaYIuGuEmJ1lASCpza4lTOIyruR/DB/4Gyb5Q5rlnKcb9Htvgri1L+echAWApLabX8kv5zSz7wHfxFf9hk3+AIci4xxn5cv+y1kDnIiM/VSDuJ1jASCpFlPA46SdNXAGeBRn+Bs1+QO8FRkrZmKl/ZGx34iI3RkWAJJqcyVwL+Fp7iYPoc0RlvTdQ33vhLcl+QOciox386idX2BLZOx3ImK3wiUJthGbxFPsgyQ1tQG4BdgK3ER4ZuAqPk5kZwmJ6gfAa8BR4NnB92ozQbh0/SsZtv0ccCthvIY1C1weEXMd4dZL08/ORMSeBT4b8fniLAAkqd2m+GSBcg2haJkgHH/PEN50eJ1wT/xF4C/4dGJcR7jn/ssZ9vEIIfmPmoxjC4ArGK3gWPzZMxGxqy8AUvAWgCSltZ7wzvoxmh1XPwSeBn6DkGDXEZJ0jsv+h4HJhv30FkDlLAAkKY1NhNfLUs6N/yPSzoKXKvkDvBkZ/xsRsX0IMAELAEmKM/+a4gx5EnWONuoDf0uJfQ3wBM1fAzwZGdvXALEAkKQYNwAvUz6hj9Jiz/znpZgIaG+DuPcniOtEQFgASFJTO8g7OVGbkz/A3Qn2ZxbYPkLM7aRZI+LORj3uGAsASRrdTtq1bPEwLcVl/4WuJt1iQHtZ+XbA/G2WFMn/AuFV0d6zAJCk0eymHcsVj9JSnvkvdDThPp4kPNy3ZbCvk4OvHyD+nv/C9lyGcahS6V9KSarJDsJSwaWPnW1I/hAW8yndv1HbniwjUaHSPwhJqsX11HfPP/Vl/8XWk/a1x9xthvqmf86m9A9Dkmqwlv4+7b+aJwr1r0l7JNMYVKn0D0OSavAQ5Y+Xo7TcZ/4LbSTtCo252hnqWvUxu9I/EElqu03UdZl7XGf+Cz2YaN9ztpjlhzup9A9EktruAOWPlcO2Vxh/8odwi+SlBvs7rnaM8CqhFij9Q5GkNqvtIbe3Ccm4hOsIKxuWHoPF7TRhFUYtUvoHI0ltdh/lj5OjtruzjMRw7qBdEySdA27L2uOKlf7hSFKbvUC6491xwn3ozcDEoG0efC/lin8Hs4zE8HbRjomS5ggzNmoZpX9AktRWU6Sb6naalae6XUO42jCbIN4HlHkOYKGvkmba3qbtPGHGRq3AAkCSlnYPaZL/thFibiNNEbCjUY/Tup0yzwScxsv+Q7EAkKSlpVjudrpB3L0J4v5Og7g5XAu8yPhyyjF84G9oFgCStLRDxB3fjrPyZf/lrAFORMb+ToO4ucyv5JdzGuX3gG/iq34jsQCQpKW9RdzxLWbimf2RsV+LiJ3LFPA4aWcNnAEexRn+GrEAkKSlnSLu+HZzROwtkbF/FBE7tyuBe4HnafaQ5RxhSd899Hhhn0sSbKN0Ek7RB0nKYRa4POLz6wiXppt+diYi9izw2YjPj8sG4BZgK3AT4ZmBq/h4HYOzhELsB4SrGkeBZwff67U2FAAmcEld9SHwmYjPX0FIYE0/eyYidi0FgBq6tPQOSFKHvRv5+Z+P+OwvRMZuWnioEhYAkpRPbAHwlYjPfjky9unIz6vlLAAkKZ83Ij+/m+avAcbOYvdm5OfVchYAkpTPq5Gf30x42n1U08S9QQDweuTn1QO+xidJS9tB/DFyFtg+QsztpJlD/85GPVavWABI0tImCW8CpCgC9rLy7YD52fJSJP8LhFfppBVZAEjS8mKnA17YThJm+NtCKC4mB18/MPi3VHGeyzIS6hwLAElaXooVAcfd9mQZCXWOBYAkLW8t8Dblk/qwbYYeT4/bJ74FIEl5fQZ4p/ROjODbOAeAhuQVAEla2iRwmPJn9cO2M7gqnkZgASBJnzZBWHSmdFIfpcUsP6wesgCQpE+q7cz/InCM8CqhNDQLAEn6WI1n/qeBa3IMhrrNAkCSghrP/M8Bt+UYDLWbl3sklTYF3AJsBW4inIluIJxJX0pYlvanwFvA94H/SUiyPyqxsyuYJEz686XSOzKCi4RFgw6W3hHVySsAkka1HriPcN+5yXFjDjgy2MYVY973pdR65r8zx2CoPywAJA1rE3AAeI90iewM8LvAz42xHwvVmPxP42V/JWABIGk1a4HfJm3iXyqp7WO8E5zVmPyP4QN/SsQCQNJKbgBeZnwJ7nvAF8bQr9qS/xlCgeSzX0rGAkDScnYQEs+4k907wK9m7FfO5P8q4QHHVNubAR7FGf6UgQWApKXsBs5T5mz3IvAR8OsZ+pUz+R8ebP9ywiqCh4APGmxnjrCk7x5c2EcZWQBIWmw3IQmVSv7z7Rxpi4BxJP/FJghXUn4H+A7hVcgfEwqDWeDU4HsHgSeAO4GrEvZZWpYFgKSFdlD2zH9x+wD4xwn6VSL5S61mASBp3g2Uuee/WvsxYcKhpkz+0hIsACRBeNVvnE/7j9qeAi5p0C+Tv7QMCwBJAA9RPsmv1n5jxD7lXNjnCLBuxP2RWsUCQNIm8k7yk6r9H0JSH4Zn/tIqLAAkHaB8ch+2fWOI/njmLw3BAkDqt/XUcfY/3/6W8LzCcjzzl4ZkASD1232UT+qjttuX6Ytn/tIISv8hS7GmCLOuPQk8DbxOWH9+dtB+Ovje08C3gLtxWtWFXiDd3/Nxwnz1mwnJeGLw9b7Bv6WK88dL9MMzf2lEFgCqUYr16I8C04Nt9dUUaWb8myWM5ZoVYq0h/MxmE8Q7wycXxTH5Sw1YAKgmOdajP0uYgnXjGPvRFveQJvlvGyHmNtIUAf9ksD2Tv9SQBYBqcBnhMvIM+X4X3wceJizk0hdPEj9u0w3i7k0Qdx8mfymKBYDabtzr0b8EXDeWnpV3iLixOs7Kl/2XswY4ERn7P2Pyl6JYAKjNSq1H/y5wxxj6V9pbxI3TvojY+yNj52omf/VG6T82aTk7CcvBlvrdPA98LXsvyzpF3BjdHBF7S2Rsk78UqfQfnLSUtqxHPwfsytzXkmIfxotJlusiY6duvuev3in9Ryct1rb16M+x/MQztfuIuLGJSZhXRMY2+UuRSv/hSQtdTzvXo58BbszY71J+Sty4dOEWgJf9VaVLS++AlNBawgxvV5TekSWsA/6IT04+0wV/H/n5r0R89suRsVM4AtxKmFdC6p3S1bc0r4b16Pdn630ZTxM3Hido/hrgycjYnvlLkUofUCWoZz36GeDzmcaghBQTAe1tEPf+BHFN/lKk0gdUCepaj/6xTGNQwl3Ej8cssH2EmNuJf/jQ5C8lUPpgKtW2Hv1Z4MosIzF+G0m3GNBeVr4dMD+ds8lfaonSB1OpxvXov55lJMo4QrpxOUl4TmILIdFODr5+AO/5S61jAldpNa5H/3yWkSijxgLM5C8lYAGgkmpdj34O2BDd+3ZYR1j7oHSSztWc5EdahgWASqp5Pfq7GvW4nX6X8ok6R/PMX1qBBYBKqnk9+gMN4rbVlYRJgUon7JTNM39pFRYAKqnm9eifahC3zfZRPmmnap75S0OwAFBJNa9H/0ZE7Da6FPhLyifv2OaZvzQkCwCVVPN69O9ExG6rLxD6VTqJN22e+UsjsABQSTWvR/9hROw2+1XKTtZj8pfGxAJAJcUWACXXo+9qAQDwa8A5yif1YZuX/aUGLABUkrcA2uvXgQ8on9xXa575q5cuLb0DUqTTkZ8vuR597L633Z8A/wz4u9I7soIjwK2EtSQkjcgrACop9jXAkuvRd+01wOVsAP6M8mf6i5uX/aVIFgAqqeb16Ls0EdAw7gD+mvKJ3+QvJWIBoJLuJv53sNR69Hc26nHdJoBvAH9LueTvPX8pEQsAlXQ1da5HfwG4Krr39VpLuCLwx8AZTP5SlSwAVNpR0iWIca1H/1yWkajTZcAvE4qr/4TJX6qGBYBKm2Z8Z5Cp2p4sI1G3CeBZ8ox3znv+U4RVKZ8EngZeB35KuKo0O/j69cG/fYtw2+rqTPsijZUFgEpbT3iNq3RSH7bNEFbP08dqS/7rgfuAYw33aY5w5Wp6sC2pShYAaoMnKJ/Yh22PZBqDWtWU/DcR3t5IWXCeJfz+bky4n9JYWACoDTYSDqSlk/tq7Qxe/l2oluQ//wDoTKZ9vQi8DzwMXJ5on6XsLADUFg9SPsGv1mKWH+6aWpL/DcDLmfZzqfYScF2ifZeysgBQW6wlHDxLJ/nl2jHCmaTqSf47GO9rivPtXcJrklKrWQCoTa4jHDxLJ/vF7TRwTcZ+16SW5L+Tsisange+lqgvUhYWAGqbO2jXUrTngNuy9rgetST/3aSZYCq2zQG7EvVJSs4CQG20i/YcwHdm7mstakn+Owhn36V/d+bbOeD2RH2TkrIAUFt9lTTT9jZt5wlnkqon+V9PmXv+q7UZ4MZEfZSSsQBQm91OmWcCTuNl/3m1JP+1jPdp/1Hbi/gQqVrGAkBtdy3h4DmuA/UxfOBvXi3JH+ChTPuZsu1P2F8pmgWAajA/kUvOy7vvAd/Es7R5NSX/TdQxnfQM8PmE/ZaiWACoJlPA46SdNXAGeBRn+FuopuQPYXrf0sl92PZY4r5LjVkAqEZXAvcCz9PsbYE5wpK+e3Bhn8VqS/61LSZ1Fn/n1BIWAKrdBuAuwlngQeD7wCk+Xs711OB7BwmLttwJXFVkT9uvtuQPYVW/0kl91Pb1DOMgjaz0H4Kkdqgx+QO8kHA/jxOeNdlMGI+Jwdf7Bv+WKs7zWUZCGpEFgKRak/8UaSaMmgWmgTUrxFpDuNowmyDeHOHKlVSUBYDUb7Umf4B7EuzjLLBthJjbSFME3NWox1JCFgBSf9Wc/AGeTLCf0w3i7k0Q90CDuFJSFgBSP9We/AEORe7ncVa+7L+cNcCJyNhPNYgrJWUBIPVPF5I/wFuR+7ovIvb+yNhvRMSWkrAAkPqlK8kfwiueMft7c0TsLZGx34mILSVhASD1R5eSP8Q/jDcZEXtdZOwPI2JLzlku9cAUcAuwFbiJsFDRBkIyv0hYH+Fd4HXgVcLCSc8QZsdbaJJwz/xLGfbxCHDrEjHb7pJCn5VawSsAUvusJ7xzfozmZ5eHgLsJy+ROAocbbmu1dpi4M+kY3gKQIlgASO2xifB6WMq57d8GXkm4vbYkf4A3l9mvYds3ImL7EKCqZwEglTe/3PEM5f8mh20l7vkvFvsa4AmavwZ4MjK2rwGquNIHEanvbgBepvzf4iit9Jn/vBQTAe1tEPf+BHGdCEjFlT6QSH22g/AQX+m/wxqTP4RnHGL7MwtsHyHmduCjBHHvbNRjKaHSBxOpr3YC5yj/NzhKa8Nl/4WuJt1iQHtZ+XbA/G2aFMn/Ai5JrRYofUCR+mg3aRLXOFubzvwXOkq6Pp4kPNy3hdDXycHXDxB/z39hey7LSEgjMoG33xRh1bMngacJ73v/lHDWMjv4+vXBv32LcFn06iJ7qmHsAM5TPqF3IflDWMyn9PiM2vZkGQlpRBYA7RT7Hvgc4cxoerAttcP11HfPv22X/RdbT9rXJnO3GeDKLCMhjcgCoF1yvAd+FngC2DjGfujT1uLT/rk8QfmxGrY9kmkMpJFZALTDON4Dfx94GLh8PF3SIg9RPvmM0tp+5r/QRkKhW3rMVmtn8PacWsQCoLxxvwf+EnDdWHqmeZuo6zJ1LWf+Cz1I+XFbrcUsPywlZwFQVqn3wN8F7hhD/xQcoHzyGba9Qn3JH8ItlpcoP37LtWO4gJtaxgKgnJ2UfQ/8PPC17L1UbQ+pvU1IpjW6jlDclh7Dxe00YRVHqVUsAMpoy3vgc8CuzH3tu/so/3Metd2dZSTG4w7aNcHSOeC2rD2WGrIAGL+2vQd+Drg9a4/77QXS/ayOE+4jbwYmBm3z4HvHE8Y5mGUkxmcX7Smwd2buq9SYBcB4tfU98Bngxoz97qsp0k1VO83KU9WuIVxtmE0Q7wPqfA5goa+SZtrepu084Uqf1FoWAOPT9vfAX8SHlFK7hzTJf9sIMbeRpgjY0ajH7XI7ZZ4JOI2X/VUBC4DxqeE98P3Zet9PKZarnW4Qd2+CuL/TIG4bXUsobsf1N3QMH/hTJSwAxqOW98BngM9nGoM+OkTcz+M4K1/2X84a4ERk7O80iNtW8xNt5bz99h7wTbyKpopYAIxHTe+BP5ZpDProLeJ+FjETx+yPjP1aROy2mgIeJ+2sgTPAozjDnypkAZBfbe+Bn8XFSlI5RdzP4uaI2FsiY/8oInbbXQncCzxPs4c05whL+u7BvxUVckmCbcQm8RT70HX3Af++9E6M6F7g26V3ogNmiVt7YR2heGz62ZmI2LPAZyM+X4sNwC3AVuAmwjMDV/HxOghnCYXcDwhXRY4Czw6+J1XNKwD51fge+PNZRqJ/PiTu5xCzGM8VkbE/jIgtqQIWAHnV+h74HOHMSHF+TNzPoeQtgHciYkvK7NLSO6BV3UL8bZKPCO8U/wfgwgr/3wXg9wb/70eRMS8h7LvinI78/FciPvvlyNix+y4pIwuA9tuaYBsPAM+M8P8/Q1gaNVaKfe+7NyI/v5vmrwHGzkL3ZuTnJWVkAdB+vxj5+RPA7zf43H8ETkbGjt13wauRn99MeCBzVNPE3T4AeD3y85JazmcA8qr5PfDY45XANAAAEupJREFUs1fBPyfN8x/bR4i5nTRz4N/ZqMeSqmEBkFfN74H7EFi8CcLCOimKgL2sfDtgfra7FMn/AuFVOEkdZgGQV+wT+TErsq2LjO1rYGkcJP7vbL6dJFzZ2UL43ZgcfP3A4N9SxXkuy0hIahULgLxiCwDfA6/f3aRLzONqe7KMhKRWsQDIy1sAWgu8TfmkPmybweltpdbzLYD28z1wfYa6iqlv489e6gWvAOQVuxzsCZq/Bx57T/ipBnH1SZPAYcqf1Q/bzuCqdlIVvALQfrHvUvseeL0mgD8DvlR6R0bwb4CflN4JSePhFYC8UjwA5nvg9antzP8icIzwKqGknrAAyOtq0i0G5HvgdZggLBdbOqGP0k4D1+QYDEntZQGQ31HSHah9D7zdajzzP0dYQEpSz5Q++PTBNOXHedTme+CjqzH5zwE7cwyGpPYrfQDqg/XAe5Qf62Gb74GPrsbL/ueJXzFQUsVKH4T64gnKj/Ww7ZFMY9BV66jvzP80XvaXeq/0gagvNgJnKT/eqzXfAx9Njcn/GD7wJ4nyB6M+eZDy471ai1l+uG9qu+z/HvBNfNVP0kDpg1KfrAVeovyYL9d8D3x4Oc/8XyHt2gEzwKN4ZUfSIqWTTt9cB7xL+XFf3HwPfHg5k//3CG8TrCVMInUQ+KDBduYIr3LuwQc6pU66JME2SifhFH2ozR3An9Kes+3zwA5CstHK1hHGKcf0vocJD+a9t+j7E8A24IvALwE3AZ8DfpYwHfhZwqqTPwBeI8w78ezge5K0rNJnnn21izQzBMY23wMfXs57/kcIxYUkjU3pBNRnXyXNtL1Nm++BD8/kL6lzLADKup0yzwT4HvjwTP6SOskCoLxrgRcZ35j7HvjwTP6SOssCoB3mV/I7Q76x9j3w0Zj8JXWaBUC7TAGPk3bWQN8DH53JX1LnWQC005XAvcDzNHtbwPfAmzP5S2o95wHohw3ALcBWwjvg1wJX8XEi8T3wdCaAPwd+NcO2nwNuJfy8JKk4z+ClwDN/Sb1iASCZ/CX1kAWA+s7kL6mXLADUZyZ/Sb1lAaC+MvlL6jULAPWRyV9S71kAqG9M/pKEBYD6xeQvqROc010K0ycvnCjpGsLkSROExHwW+DHwJvAF4B9m2IfDhNUV38uwbUnKwisAqtF64D7CyoY5zuZHad8DJvN2V5LSswBQTTYBBwhn2qUTv8lfUtUsAFSD+eWSZyif9Oeb9/wlVc0CQG13A/Ay5RO+Z/6SOsUCQG22AzhD+YRv8pfUORYAaqudwDnKJ/yFzcv+kjrDAkBttBuYo3zC98xfUmdZAKhtdgDnKZ/wF7bnMflL6hgLALXJ9bTvnv9F4G+AqzL2W5LGzgJAbbGW9j3tv7D913xdl6TxswBQWzxE+SS/Wrs7W+8lacwsANQGm2jP7H4rtbcJawxIUlGXlt4BKZEHqSOxbgTuL70TkpSCVwBU2nrqOPufb38HfDbLSEjSkLwCoC74Teo4+593NXBX6Z2Q1G+XJNhG7Fl8in1Qv70A/KNE2zoB/AHwF8BfDb73BWA7YXKhLYnifBf4SqJtdd0UcAuwFbgJuAbYwMdF3/vAO8APgdeAo8CzwE/GvqdSz3gLQCVNkWbGv1lgGlizQqw1wH2D/zc23keEWxda2nrCWB+j2fjOEQqBaRxnKRsLAJV0D2mS/7YRYm4jTRHwLxr1uNs2AQdI+0zHWeAJwgOYkhKyAFBJTxL/OzjdIO7eBHEfbxC3qy4D9gEzpEv8i9v7wMPA5ePpktR9FgAq6RBxv3/HWfmy/3LWEJ4XiIn9VIO4XXQD453B8SXgurH0TOo4CwCV9BZxv3/7ImLvj4z9/YjYXbGDMms3vAvcMYb+SZ1mAaCSThH3+3dzROwtkbH/PiJ2F+wEzjH+5D/fzgNfy95LqcMsAFRS7MN4MUv0rouMPRsRu3a7SfP2RmybA3Zl7qvUWaX/gNVvHxL3+7MuIvYVkbE/jIhdsx2Es+/Sx475dg64PWuPpY4q/cerfvs74n5/St4CeCcidq2up8w9/9XaDHBjxn5LreNUwKpd7GxvMbPxfTky9unIz9dmLfDHhCsnbbMO+CPC64iShlS6cle//Qlxvz8naP4a4MnI2H17DfAhyh8vVmv7s/Ve6qDSf7DqrwngReJ/h/Y2iH1/grgHGsSt1SbqWLFxBvh8pjGQOqf0H6z6aQL4H6T5HZolLPYzrO2Eufxj497ZoN+1OkD5Y8Ww7bFMYyB1Tuk/VvVPyuS/sAjYy8q3A+anq02R/C8AV8UNQzXWU8fZ/3w7C1yZZSSkjin9x6p+yZH8F7aThPvAWwhzBEwOvn6A+Hv+C9tzqQemxe6j/HFi1Pb1LCMhdUzpP9QumCKsavck8DTwOvBTwlnp7ODr1wf/9i3gbuDqInta1s8A/53yv3Mp2p7EY9NmL5Bu3I4TrsJsJhSDE4Ov9w3+LVWc57OMhNQxpQ+ktXK989HkPvMfZ5uhP5eYp0gz498s4Xd9pVs0awh/UymWap4DNkT3Xuq40gfT2rje+ei6dOZ/EXgk7fC02j3Ej9cssG2EmNtIUwTc1ajHUo+UPpjWwvXOm+nSmf9Fwix4fbp98yTxYzbdIO7eBHH79Jqm1EjpA2oNXO+8ma6d+V8kbvnhGh0ibryO03yiphORsfs2UZM0stIH1LZzvfNmunbmf5HwvEffppp9i7gxiymY9kfGfiMittQLpQ+qbbYT1ztvootn/qeBa1IOUiVOETduLtYktVjpA2tbud55M1088z8H3JZykCoS+zDeZETsdZGx+7pcszS02INjF7neeTNdTP5zhCtBfRVbAKyLiH1FZGwLAGkVsQfIrnG982a6eNn/POFKUJ95C0DqsNiDZJesZbxP+4/aXqSdD6HlPPM/Cvx1pm2v1E7T38v+C71J3Dh+IyK2DwFKmcUeKLvE9c5HlzP5HybcQ/454DuZYizVjtHPB/6WEvsa4AmavwYYu3aDrwFKq4g9WHaF652PbpL8yX+he4C3M8W7SLj1s492XmUpJcVEQHsbxL0/QVwnApJWEftH1hWudz6acSf/eRPAvwZ+kjDeDPAo/Zrhb1h3Ez++s8D2EWJuJ82SzXc26rHUI7F/ZF3geuejKZX8F/oM4en879JsroY5wpK+e+jPwj5NXE26xYD2svLtgPnptlMk/wvAVdG9lzrOAsD1zkfRhuS/2HrCq5uPEe77fp+wBPNHhMRzavC9g4RFl+7E5DCKo6T7GZ8kPMeyhfCznhx8/QDx9/wXtueyjITUMRYArnc+rJyv+h0h7p1x5TNNnp95zrYny0hIHdP3AsD1zodj8u+v2m6RzeBtHWkofS8AXO98dSZ/PUH5xD5seyTTGEid0/cCwPXOV2byF8BGwsOnpZP7au0Mvs0hDa3vBYDrnS/P5K+FHqR8gl+txSw/LPVO3wsA1ztfmslfi60FXqJ8kl+uHcNJnKSR9L0AcLGTTzP5aznXAe9SPtkvbqdx+mZpZH0vAFzv/JNM/lrNHTSbfClXO4cLN0mNWADE9b9L652b/DWsXaR5fTa2zRFmhJTUQN8LAG8BBCZ/jeqrpJm2t2k7D+zO3kupw/peALjeuclfzd1OmWcCTuNlfyla3wuAvq93bvJXrGuBFxlf8j+GD/xJSfS9AOjzeucmf6Uyv5LfGfIl/veAb+KrflIyfS8A+rreuclfOUwBj5N21sAZ4FGc4U9Kru8FQB/XOzf5K7crgXsJq1Y2+fuaIyzpuwcX9pGy6XsBAP1a79zkr3HbQFi46gBwEPg+4e2b2UE7NfjeQcKiQ3fSvLiVNAILgP6sd27ylyT9fxYA/Vjv3OQvSfoEC4Cgy+udm/wlSZ9iARB0db1zk78kaUkWAB/r2nrnJn9J0rIsAD7WpfXOTf6SpBVZAHxSF9Y7N/lLklZlAfBpNa93bvKXJA2ldHJrqxrXOzf5S5KGVjrBtVlN652b/CVJI7EAWFkN652b/CVJI7MAWF2b1zs3+UuSGrEAGE4b1zs3+UuSGrMAGE1b1js3+UuSolgANFNyvXOTvyT13CUJtlE6CafoQ2kbgFuArcBNhGcGruLjRHqWsOb5D4DXgKPAs4PvjepngD8fxEvtOeBWwv5KkjrOKwD18MxfkpSMBUAdTP6SpKQsANrP5C9JSs4CoN1M/pKkLCwA2svkL0nKxgKgnUz+kqSsLADax+QvScrOAqBdTP6SpLEwgbeHyV+SNDYWAO1g8pckjZUFQHkmf0nS2FkAlGXylyQVYQFQjslfklSMBUAZJn9JUlEWAONn8pckFWcBMF4mf0lStMtK70BPTAG3AFuBm4BrgA3ABCHxngHeBV4HXgVeAv4CeG/RdiaBg8A/zbCPR4Bbl4gpSdKSvAKwtPXAfcAxmo3Lh8DTwD3A5YTk/72G21qtHR5sX5KkoVkAfNIm4ADhTDpVgv4R8ErC7Zn8JUnRLACCy4B9wAx5EnWO5j1/SVJjFgBwA/Ay5RO6Z/6SpLHpewGwg/AQX+mEbvKXJI1VnwuAncA5yif0UZqX/SVJSfS1ANgNzFE+oXvmL0kqoo8FwA7gPOUTuslfklRM3wqA66nvnr+X/SVJyfWpAFiLT/tLkgT0qwB4iPIJ3TN/SVIr9KUA2ETa2f0885ckVa0vBcAByif1YdsrmPwlSZn1oQBYT11n/28TnleQJGlJl5begUr8JmHp3lpsBH6t9E5IkrqtD1cAXiDd2flxwqJBmwlFxcTg632Df0sV52CWkZAkaaDrBcAUaWb8mwWmgTUrxFoD3Df4f2PjfYDPAUiSMup6AXAPaZL/thFibiNNEbCjUY8lSZ3nMwCr25pgGw8Az4zw/z8DPJgg7hcTbEOSpCV1/QrAIeL6d5yVL/svZw1wIjL2dxrElST1gFcAVndD5Of/ALjQ4HMXgD+MjH1j5OclSR1lAbC6z0V+/ruFPgvx+y5J6qhLEmwj9jJ+in3IaRa4POLz6wiTCDX97ExE7FngsxGflyR11GWld4D2FxAl96/txZEkqVLeAljdu5Gf//mIz/5CZOyzkZ+XJHWUBcDqYguAr0R89suRsU9Hfl6S1FEWAKt7I/Lzu2n+GuDuyNhvRn5ektRRFgCrezXy85uBext8bhq4OTL265GflyRpWbETAbV9IqEdCfZxFtg+QsztwEcJ4t7ZqMeSJA2h6wXAJPBhgv2cBfay8u2AywirAqZI/heAq6J7L0nSMrpeAED8dMAL20lgP7CFUFxMDr5+YPBvqeI8l2UkJEka6EMBkGJFwHG3PVlGQpLUCW2YCTDWOCbLWQv8NbBxDLFSOAv8A3wNUJK0DN8CGM5ngHdK78QIvo3JX5KUWelL3blNAocL9m/Udga4OstISJK0QOmEl9ME8GwL+jhK25dlJCRJWqR0wsultjP/i8Ax2rHAkySpB0onvRxqPPM/DVyTYzAkSVpK6cSXWo1n/ueA2zKMhSRJy2pbAo9RY/KfA3bmGAxJklbSlQKgxsv+54lfMVCSpEa6UADUeOZ/Gi/7S5IKqr0AqDH5H8MH/iRJhdVcANR22f894Jv4qp8kqQVqLQBynvm/ArydcHszwKM4w58kqUVqLAByJv/Dg+2vBe4GDgIfNNjOHGFJ3z3AlXmGQZLUV21YDXAcq/ktNAkcAr6UYdtHgFsJl+oXmgC2A18Efgn4ReBzwM8SFmQ6C5wCfgC8Bhwl3Jo4lWEfJUlKoqYrADnv+R8B1o2vK5IklVVLAWDylyQpoVoKgF0J9nWle/6SJPVKLQUAhFfoPPOXJCmBmgoASFcEmPwlSb1WWwEA8UWAyV+S1Hs1FgDQvAgw+UuSRL0FAIxeBJj8JUkaqLkAgOGLAJO/JEkL1F4AwOpFgMlfkqRFulAAwPJFgMlfkqQldKUAgE8XASZ/SZKW0aUCAD4uAkz+kiStoGsFAMBv4fS+kqQO6+NywJIk9d6lpXdAkiSNnwWAJEk9ZAEgSVIPWQBIktRDFgCSJPWQBYAkST1kASBJUg9ZAEiS1EMWAJIk9dBlpXegA2qfCdH9L8v9L8v9L8v9L8grAJIk9ZAFgCRJPWQBIElSD1kASJLUQxYAkiT1kAWAJEk9ZAEgSVIPWQBIktRDFgCSJPWQBYAkST1kASBJUg9ZAEiS1EMWAJIk9ZAFgCRJPWQBIElSD6VYizh2PWRJkjS6qBzuFQBJknrIAkCSpB6yAJAkqYcsACRJ6iELAEmSesgCQJKkHrIAkCSph1IUAO8l2IYkSRqjFAXA3yTYhiRJGqMUBcB3E2xDkiSNUYqpgLcA/wtYk2BbkiRpOMWnAj4B/H6C7UiSpDFJcQUA4HLgILAt0fYkSdLKil8BAPgIuA34PeBCom1KkqRMUl0BWGgz8C+BLwNfACYzxJAkqe9y5HBJkiRJkiRJkiRJkiRJkiRJkiRJkiRJkiRJkiRJkiRJkiRJkiRJkiRJkiRJkiRJknrt/wH/H8MiLXyMpgAAAABJRU5ErkJggg==;backgroundOutline=0;comic=0;" parent="1" vertex="1">
                    <mxGeometry x="240.00284792951544" y="-710.5" width="23" height="23" as="geometry"/>
                </mxCell>
                <mxCell id="555" value="&lt;font style=&quot;font-size: 15px;&quot;&gt;1&lt;/font&gt;" style="ellipse;whiteSpace=wrap;html=1;fillColor=#dae8fc;strokeColor=#6c8ebf;" vertex="1" parent="1">
                    <mxGeometry x="527" y="-1013" width="20" height="20" as="geometry"/>
                </mxCell>
            </root>
        </mxGraphModel>
    </diagram>
</mxfile>